<?xml version="1.0" standalone="no"?>
<!DOCTYPE svg PUBLIC "-//W3C//DTD SVG 1.1//EN" "http://www.w3.org/Graphics/SVG/1.1/DTD/svg11.dtd" >
<svg xmlns="http://www.w3.org/2000/svg">
<metadata>Generated by IcoMoon</metadata>
<defs>
<font id="icomoon" horiz-adv-x="1024">
<font-face units-per-em="1024" ascent="960" descent="-64" />
<missing-glyph horiz-adv-x="1024" />
<glyph unicode="&#x20;" horiz-adv-x="512" d="" />
<glyph unicode="&#xe900;" d="M1024 448c0-282.77-229.23-512-512-512s-512 229.23-512 512c0 282.77 229.23 512 512 512s512-229.23 512-512z" />
<glyph unicode="&#xe901;" d="M470.486 489.514h-214.466c-19.070 0-34.616-15.489-34.616-34.595 0-19.239 15.498-34.595 34.616-34.595h214.466v-221.354c0-22.885 18.586-41.564 41.514-41.564 22.881 0 41.514 18.609 41.514 41.564v221.354h214.466c19.070 0 34.616 15.489 34.616 34.595 0 19.239-15.498 34.595-34.616 34.595h-214.466v207.517c0 22.885-18.586 41.564-41.514 41.564-22.881 0-41.514-18.609-41.514-41.564v-207.517z" />
<glyph unicode="&#xe902;" glyph-name="home_notice" d="M448.776 796.618c-6.425 0-12.153-2.993-15.913-7.674-0.222 0.189-0.443 0.376-0.664 0.569l-157.083-153.482h-79.613c-32.632 0-59.178-26.88-59.178-59.921v-224.313c0-33.045 26.546-59.926 59.178-59.926h78.348c11.318 0 20.498 9.296 20.498 20.76 0 11.461-9.18 20.756-20.498 20.756h-22.601c-0.004 0.004-0.004 0.008-0.004 0.008-0.087 0-0.174-0.008-0.261-0.008h-55.481c-10.022 0-18.178 8.259-18.178 18.41v224.313c0 10.147 8.155 18.406 18.178 18.406h81.992c1.621 0 3.191-0.22 4.689-0.625v0.672c5.523-0.332 11.157 1.585 15.454 5.781l130.639 127.642v-531.288l-20.21 21.205-16.517 18.382c-7.619 8.482-20.585 9.099-28.959 1.386-8.377-7.715-8.986-20.844-1.367-29.323l13.366-14.875c-0.052-0.020-0.103-0.044-0.155-0.065l3.705-3.887 7.551-8.406c0.992-1.105 2.079-2.073 3.234-2.91l45.1-47.328c0.039-0.040 0.083-0.080 0.122-0.12 0.131-0.136 0.265-0.268 0.396-0.397 0.118-0.113 0.234-0.229 0.348-0.336 0.122-0.113 0.245-0.22 0.367-0.329 0.135-0.124 0.273-0.244 0.411-0.364 0.099-0.084 0.202-0.164 0.305-0.248 0.166-0.132 0.328-0.268 0.498-0.397 0.076-0.056 0.155-0.112 0.23-0.168 0.197-0.144 0.392-0.288 0.593-0.424 0.052-0.036 0.106-0.072 0.158-0.109 0.226-0.148 0.45-0.3 0.684-0.44 0.035-0.025 0.071-0.044 0.11-0.065 0.245-0.152 0.494-0.3 0.747-0.437 0.048-0.028 0.099-0.051 0.147-0.076 0.241-0.132 0.483-0.26 0.728-0.376 0.11-0.056 0.222-0.104 0.332-0.152 0.186-0.088 0.371-0.176 0.562-0.26 0.193-0.084 0.391-0.161 0.585-0.237 0.11-0.040 0.218-0.088 0.324-0.128 0.257-0.095 0.518-0.183 0.779-0.267 0.051-0.020 0.098-0.037 0.154-0.056 0.276-0.088 0.558-0.168 0.838-0.244 0.039-0.012 0.075-0.020 0.11-0.033 0.265-0.072 0.534-0.132 0.803-0.192 0.056-0.012 0.115-0.029 0.174-0.040 0.238-0.052 0.479-0.096 0.72-0.136 0.091-0.016 0.182-0.036 0.273-0.052 0.209-0.032 0.419-0.059 0.628-0.088 0.131-0.015 0.257-0.036 0.388-0.048 0.181-0.019 0.363-0.036 0.541-0.051 0.162-0.012 0.328-0.025 0.49-0.037 0.158-0.007 0.321-0.015 0.479-0.019 0.185-0.008 0.371-0.012 0.558-0.016 0.055 0 0.114-0.004 0.173-0.004 0.095 0 0.186 0.008 0.281 0.008 0.185 0.004 0.375 0.008 0.561 0.016 0.163 0.008 0.321 0.015 0.479 0.024 0.174 0.012 0.348 0.025 0.518 0.040 0.174 0.016 0.344 0.036 0.518 0.056 0.154 0.016 0.308 0.036 0.463 0.060 0.185 0.024 0.371 0.051 0.553 0.084 0.139 0.024 0.277 0.047 0.416 0.076 0.193 0.036 0.387 0.072 0.581 0.116 0.131 0.028 0.261 0.060 0.392 0.092 0.193 0.048 0.387 0.096 0.577 0.148 0.135 0.037 0.265 0.073 0.399 0.113 0.182 0.056 0.368 0.112 0.55 0.168 0.143 0.048 0.285 0.096 0.423 0.144 0.17 0.059 0.34 0.12 0.506 0.183 0.155 0.060 0.309 0.124 0.463 0.184 0.151 0.064 0.301 0.124 0.451 0.189 0.166 0.072 0.328 0.152 0.494 0.228 0.135 0.065 0.265 0.124 0.396 0.193 0.177 0.084 0.347 0.176 0.521 0.267 0.118 0.065 0.238 0.128 0.356 0.193 0.174 0.1 0.348 0.2 0.521 0.304 0.115 0.068 0.23 0.136 0.34 0.208 0.17 0.104 0.336 0.212 0.502 0.324 0.115 0.077 0.234 0.157 0.348 0.237 0.155 0.108 0.309 0.22 0.458 0.332 0.127 0.092 0.249 0.184 0.372 0.277 0.138 0.112 0.276 0.219 0.415 0.332 0.131 0.108 0.261 0.216 0.391 0.328 0.123 0.109 0.246 0.216 0.368 0.324 0.138 0.125 0.272 0.253 0.411 0.381 0.067 0.064 0.143 0.128 0.209 0.196 0.044 0.040 0.083 0.084 0.122 0.128 0.131 0.128 0.261 0.264 0.388 0.397 0.11 0.116 0.226 0.236 0.336 0.356s0.214 0.241 0.32 0.365c0.122 0.14 0.246 0.28 0.364 0.42 0.079 0.1 0.158 0.204 0.237 0.304 0.135 0.168 0.269 0.336 0.396 0.508 0.055 0.076 0.11 0.152 0.162 0.229 0.146 0.2 0.288 0.4 0.427 0.604 0.031 0.048 0.063 0.1 0.094 0.149 0.151 0.233 0.301 0.468 0.447 0.704 0.015 0.033 0.031 0.060 0.052 0.092 0.15 0.256 0.301 0.516 0.442 0.777 0.024 0.044 0.044 0.088 0.064 0.128 0.134 0.252 0.26 0.504 0.384 0.756 0.047 0.1 0.090 0.205 0.134 0.304 0.091 0.201 0.186 0.401 0.269 0.601 0.079 0.189 0.15 0.376 0.222 0.565 0.048 0.12 0.098 0.24 0.138 0.361 0.095 0.252 0.182 0.512 0.265 0.772 0.016 0.056 0.035 0.113 0.056 0.169 0.087 0.276 0.162 0.552 0.237 0.832 0.012 0.044 0.024 0.088 0.035 0.128 0.072 0.268 0.131 0.536 0.19 0.804 0.012 0.060 0.027 0.12 0.039 0.18 0.052 0.24 0.095 0.485 0.135 0.725 0.015 0.096 0.035 0.189 0.052 0.284 0.031 0.208 0.059 0.42 0.086 0.633 0.016 0.131 0.036 0.263 0.048 0.396 0.020 0.18 0.036 0.365 0.052 0.544 0.012 0.169 0.028 0.333 0.035 0.497 0.008 0.16 0.016 0.324 0.020 0.485 0.008 0.188 0.012 0.376 0.015 0.564 0 0.060 0.004 0.117 0.004 0.176v630.572c0 11.461-9.179 20.756-20.501 20.756zM836.776 585.292c-14.758 37.196-35.893 70.614-62.828 99.327-17.691 18.863-37.312 35.059-58.596 48.442-0.664 0.488-1.356 0.949-2.084 1.369l-1.462 0.832c-4.471 2.723-9.022 5.317-13.636 7.79l-16.568 9.467c-9.864 5.632-22.364 2.102-27.93-7.882-5.562-9.983-2.080-22.646 7.784-28.278l30.599-17.482c18.818-11.657 36.355-25.992 52.169-42.848 48.069-51.252 74.542-119.464 74.542-192.080s-26.473-140.828-74.542-192.079c-15.781-16.825-33.283-31.136-52.062-42.781l-30.658-17.289c-9.891-5.581-13.441-18.223-7.935-28.238 5.511-10.016 17.995-13.61 27.883-8.034l13.592 7.665c5.743 2.99 11.386 6.169 16.916 9.54l1.258 0.708c0.778 0.441 1.514 0.929 2.213 1.45 21.253 13.373 40.85 29.55 58.518 48.388 26.931 28.715 48.070 62.132 62.828 99.328 15.252 38.453 22.988 79.276 22.988 121.341s-7.736 82.888-22.988 121.342zM688.204 462.325c-0.004 0.445-0.020 0.89-0.028 1.333 0.008 0.445 0.024 0.888 0.028 1.333-0.020-0.004-0.035-0.004-0.056-0.004-1.099 49.854-20.763 96.563-55.703 131.941-20.443 20.7-44.717 36.096-71.201 45.543 0 0-15.58 5.461-21.063 4.355-7.95-0.472-15.237-5.636-18.103-13.702-3.831-10.788 1.7-22.678 12.354-26.556l32.133-11.701c47.034-24.799 79.482-74.177 80.618-131.209-1.136-57.031-33.584-106.41-80.618-131.209l-32.133-11.701c-10.654-3.879-16.185-15.768-12.354-26.556 2.866-8.066 10.153-13.23 18.103-13.702 5.483-1.105 21.063 4.355 21.063 4.355 26.484 9.448 50.758 24.843 71.201 45.543 34.939 35.38 54.604 82.087 55.703 131.941 0.020 0 0.035 0 0.056-0.004z" />
<glyph unicode="&#xe903;" d="M593.655 550.4c25.6 89.6-25.6 294.4-294.4 332.8 115.2-256-120.055-309.823-120.055-519.41 0-172.635 141.702-312.59 316.493-312.59s316.493 137.186 330.879 293.481c7.67 83.335 0 282.519-207.317 397.719 15.933-95.477 0-128-25.6-192zM529.655 422.4c102.4 76.8 141.693 147.325 128 230.4 118.203-64 139.017-222.788 128-294.4-25.6-166.4-143.935-251.788-294.146-251.788s-256.254 114.378-256.254 264.588c0 182.363 204.8 243.2 128 460.8 192-51.2 209.821-318.869 166.4-409.6z" />
<glyph unicode="&#xe904;" d="M524.8 422.4c102.4 76.8 141.693 147.325 128 230.4 118.203-64 139.017-222.788 128-294.4-25.6-166.4-143.935-251.788-294.146-251.788s-256.254 114.378-256.254 264.588c0 182.363 204.8 243.2 128 460.8 192-51.2 209.821-318.869 166.4-409.6z" />
<glyph unicode="&#xe905;" glyph-name="my_messege" d="M914.286 297.092v-187.092l-142.651 63.714h-552.155c-60.622 0-109.765 49.044-109.765 109.719v402.276c0 60.596 49.118 109.719 109.765 109.719h585.041c60.622 0 109.765-49.044 109.765-109.719v-388.618zM493.714 411.429c30.297 0 54.857 24.56 54.857 54.857s-24.56 54.857-54.857 54.857c-30.297 0-54.857-24.56-54.857-54.857s24.56-54.857 54.857-54.857zM713.143 411.429c30.297 0 54.857 24.56 54.857 54.857s-24.56 54.857-54.857 54.857c-30.297 0-54.857-24.56-54.857-54.857s24.56-54.857 54.857-54.857zM274.286 411.429c30.297 0 54.857 24.56 54.857 54.857s-24.56 54.857-54.857 54.857c-30.297 0-54.857-24.56-54.857-54.857s24.56-54.857 54.857-54.857z" />
<glyph unicode="&#xe906;" glyph-name="my_set" d="M533.815 843.799l312.199-180.293c17.434-10.068 31.7-34.601 31.7-54.701v-321.585c0-19.951-14.192-44.591-31.7-54.701l-312.199-180.293c-17.434-10.068-45.698-9.773-62.965 0.753l-293.299 178.788c-17.317 10.556-31.266 35.353-31.266 55.454v321.585c0 19.951 13.998 44.928 31.266 55.454l293.299 178.788c17.317 10.556 45.458 10.863 62.965 0.753zM512 283.429c90.89 0 164.571 73.681 164.571 164.571s-73.681 164.571-164.571 164.571c-90.89 0-164.571-73.681-164.571-164.571s73.681-164.571 164.571-164.571z" />
<glyph unicode="&#xe907;" d="M420.571 777.143h512l-74.473-182.857h-232.783z" />
<glyph unicode="&#xe908;" d="M420.571 118.857c-181.781 0-329.143 147.362-329.143 329.143s147.362 329.143 329.143 329.143c181.781 0 329.143-147.362 329.143-329.143s-147.362-329.143-329.143-329.143zM420.571 265.143c100.989 0 182.857 81.868 182.857 182.857s-81.868 182.857-182.857 182.857c-100.989 0-182.857-81.868-182.857-182.857s81.868-182.857 182.857-182.857z" />
<glyph unicode="&#xe909;" d="M930.909 448c0-231.357-187.552-418.909-418.909-418.909s-418.909 187.552-418.909 418.909c0 231.357 187.552 418.909 418.909 418.909s418.909-187.552 418.909-418.909z" />
<glyph unicode="&#xe90a;" d="M861.091 448c0-192.798-156.293-349.091-349.091-349.091s-349.091 156.293-349.091 349.091c0 192.798 156.293 349.091 349.091 349.091s349.091-156.293 349.091-349.091z" />
<glyph unicode="&#xe90b;" d="M617.147 554.018l-153.163-159.995-57.101 59.65c-13.131 13.716-34.584 13.725-47.812-0.093-13.317-13.913-13.266-36.177-0.086-49.945l78.14-81.628c0.84-1.117 1.751-2.194 2.736-3.222 13.32-13.913 34.641-13.851 47.828-0.075l177.358 185.271c13.171 13.76 13.155 36.144-0.073 49.962-13.32 13.913-34.639 13.851-47.825 0.075z" />
<glyph unicode="&#xe90c;" d="M232.727 843.636h558.545c38.56 0 69.818-31.259 69.818-69.818v-651.636c0-38.56-31.259-69.818-69.818-69.818h-558.545c-38.56 0-69.818 31.259-69.818 69.818v651.636c0 38.56 31.259 69.818 69.818 69.818z" />
<glyph unicode="&#xe90d;" d="M279.273 797.091h465.455c38.56 0 69.818-31.259 69.818-69.818v-558.545c0-38.56-31.259-69.818-69.818-69.818h-465.455c-38.56 0-69.818 31.259-69.818 69.818v558.545c0 38.56 31.259 69.818 69.818 69.818z" />
<glyph unicode="&#xe90e;" d="M325.818 587.636h186.182c12.853 0 23.273-10.42 23.273-23.273s-10.42-23.273-23.273-23.273h-186.182c-12.853 0-23.273 10.42-23.273 23.273s10.42 23.273 23.273 23.273z" />
<glyph unicode="&#xe90f;" d="M325.818 354.909h186.182c12.853 0 23.273-10.42 23.273-23.273s-10.42-23.273-23.273-23.273h-186.182c-12.853 0-23.273 10.42-23.273 23.273s10.42 23.273 23.273 23.273z" />
<glyph unicode="&#xe910;" d="M605.091 587.636c12.853 0 23.273-10.42 23.273-23.273s-10.42-23.273-23.273-23.273c-12.853 0-23.273 10.42-23.273 23.273s10.42 23.273 23.273 23.273z" />
<glyph unicode="&#xe911;" d="M605.091 354.909c12.853 0 23.273-10.42 23.273-23.273s-10.42-23.273-23.273-23.273c-12.853 0-23.273 10.42-23.273 23.273s10.42 23.273 23.273 23.273z" />
<glyph unicode="&#xe912;" glyph-name="topbar_message" d="M512.003 220.446c-32.363 0-63.612 3.502-93.649 9.444l-130.436-72.799 1.746 119.308c-99.989 55.843-165.542 148.139-165.542 252.736 0 170.468 173.659 308.684 387.881 308.684 214.217 0 387.876-138.216 387.876-308.684 0-170.473-173.659-308.689-387.876-308.689zM512.003 890.182c-257.050 0-465.457-164.108-465.457-366.544 0-115.7 68.217-218.7 174.548-285.881v-185.393l203.897 111.35c28.218-4.191 57.249-6.624 87.013-6.624 257.075 0 465.452 164.108 465.452 366.549 0 202.436-208.376 366.544-465.452 366.544z" />
<glyph unicode="&#xe913;" glyph-name="topbar_search_grey" d="M692.632 221.967c-65.668-55.392-150.507-88.774-243.143-88.774-208.389 0-377.321 168.932-377.321 377.321s168.932 377.321 377.321 377.321c208.389 0 377.321-168.932 377.321-377.321 0-92.636-33.383-177.475-88.774-243.143l32.11-32.11c16.507 9.626 38.027 7.377 52.097-6.694l120.821-120.821c16.789-16.789 16.607-44.191-0.091-60.889l-29.827-29.827c-16.839-16.839-44.141-16.839-60.889-0.091l-120.821 120.821c-14.088 14.088-16.226 35.648-6.684 52.087l-32.12 32.12zM449.489 196.079c173.657 0 314.434 140.777 314.434 314.434s-140.777 314.434-314.434 314.434c-173.657 0-314.434-140.777-314.434-314.434s140.777-314.434 314.434-314.434z" />
<glyph unicode="&#xe914;" glyph-name="my_wiped_money" d="M512-64c282.77 0 512 229.23 512 512s-229.23 512-512 512c-282.77 0-512-229.23-512-512s229.23-512 512-512v0zM512-17.455c-257.063 0-465.455 208.391-465.455 465.455s208.391 465.455 465.455 465.455c257.063 0 465.455-208.391 465.455-465.455s-208.391-465.455-465.455-465.455v0zM299.38 720.384l170.915-300.777h-123.997v-41.891h147.456v-82.106h-147.456v-41.891h147.456v-131.537h73.728v131.537h148.294v41.891h-148.294v82.106h148.294v41.891h-124.835l170.915 300.777h-82.944l-148.294-274.804-148.294 274.804z" />
<glyph unicode="&#xe915;" glyph-name="common_rightarrow" d="M554.667 448l-170.667-213.333 42.667-42.667 213.333 256-213.333 256-42.667-42.667z" />
<glyph unicode="&#xe916;" d="M256 850.286h512c70.692 0 128-57.308 128-128v-548.571c0-70.692-57.308-128-128-128h-512c-70.692 0-128 57.308-128 128v548.571c0 70.692 57.308 128 128 128z" />
<glyph unicode="&#xe917;" d="M457.012 647.659l-170.971-443.904h72.119l41.655 114.395h190.866l41.655-114.395h72.741l-170.971 443.904h-77.093zM420.331 374.105l73.984 200.814h2.487l73.362-200.814h-149.833z" />
<glyph unicode="&#xe918;" d="M628.364 667.429h132.987c13.771 0 24.935 8.187 24.935 18.286s-11.164 18.286-24.935 18.286h-132.987c-13.771 0-24.935-8.187-24.935-18.286s11.164-18.286 24.935-18.286v0z" />
<glyph unicode="&#xe919;" d="M713.143 751.709c0.031 14.003-8.064 25.39-18.081 25.434s-18.163-11.273-18.195-25.276l-0.295-132.147c-0.031-14.003 8.064-25.39 18.081-25.434s18.163 11.273 18.195 25.276l0.295 132.147z" />
<glyph unicode="&#xe91a;" d="M128 594.286v146.286c0 50.161 49.863 91.429 104.362 91.429h504.418c54.474 0 104.362-41.246 104.362-91.429v-54.857z" />
<glyph unicode="&#xe91b;" d="M274.286 777.143h438.857c40.396 0 73.143-32.747 73.143-73.143v-438.857c0-40.396-32.747-73.143-73.143-73.143h-438.857c-40.396 0-73.143 32.747-73.143 73.143v438.857c0 40.396 32.747 73.143 73.143 73.143z" />
<glyph unicode="&#xe91c;" d="M237.714 722.286h548.571c60.594 0 109.714-49.121 109.714-109.714v-438.857c0-60.594-49.121-109.714-109.714-109.714h-548.571c-60.594 0-109.714 49.121-109.714 109.714v438.857c0 60.594 49.121 109.714 109.714 109.714z" />
<glyph unicode="&#xe91d;" d="M658.286 466.286h109.714c40.396 0 73.143-32.747 73.143-73.143s-32.747-73.143-73.143-73.143h-109.714c-40.396 0-73.143 32.747-73.143 73.143s32.747 73.143 73.143 73.143z" />
<glyph unicode="&#xe91e;" d="M219.429 868.571h585.143c50.495 0 91.429-40.934 91.429-91.429v-585.143c0-50.495-40.934-91.429-91.429-91.429h-585.143c-50.495 0-91.429 40.934-91.429 91.429v585.143c0 50.495 40.934 91.429 91.429 91.429z" />
<glyph unicode="&#xe91f;" d="M219.429 758.857h585.143c50.495 0 91.429-40.934 91.429-91.429v-548.571c0-50.495-40.934-91.429-91.429-91.429h-585.143c-50.495 0-91.429 40.934-91.429 91.429v548.571c0 50.495 40.934 91.429 91.429 91.429z" />
<glyph unicode="&#xe920;" d="M329.143 429.714h365.714c20.198 0 36.571-16.374 36.571-36.571s-16.374-36.571-36.571-36.571h-365.714c-20.198 0-36.571 16.374-36.571 36.571s16.374 36.571 36.571 36.571z" />
<glyph unicode="&#xe921;" d="M329.143 612.571h256c20.198 0 36.571-16.374 36.571-36.571s-16.374-36.571-36.571-36.571h-256c-20.198 0-36.571 16.374-36.571 36.571s16.374 36.571 36.571 36.571z" />
<glyph unicode="&#xe922;" d="M8.98 447.59c0-278.029 225.387-503.429 503.429-503.429 278.029 0 503.423 225.4 503.423 503.429s-225.393 503.436-503.423 503.436c-278.043 0-503.429-225.407-503.429-503.436z" />
<glyph unicode="&#xe923;" d="M697.227 203.603c35.071-132.167 181.195-142.422 205.286-40.101-73.508-20.483-31.194 90.591-120.913 122.428-55.057 19.537-96.701-34.816-84.373-82.328z" />
<glyph unicode="&#xe924;" d="M932.008 503.713c-7.518 158.881-86.084 404.784-452.376 370.33-238.492-22.421-461.759-250.276-280.189-590.391 0 0 30.356-214.776 349.311-188.096 177.727 14.863 394.582 168.934 383.254 408.157z" />
<glyph unicode="&#xe925;" d="M586.365 90.496c13.901 0 27.274-8.752 40.193-25.896 7.065-9.386 37.081-52.211 61.877-88.517-30.218-11.335-61.816-19.849-94.473-25.219-37.729 42.127-70.659 87.96-54.729 108.364 16.395 20.998 32.073 31.268 47.131 31.268v0z" />
<glyph unicode="&#xe926;" d="M376.986 88.82c-13.902 0-27.274-8.752-40.194-25.896-5.712-7.589-26.43-37.041-47.261-67.231 28.773-14.17 59.097-25.672 90.647-34.185 32.862 38.448 58.328 77.616 43.945 96.043-16.398 20.998-32.078 31.268-47.137 31.268v0 0z" />
<glyph unicode="&#xe927;" d="M539.764 71.249c0-30.081-28.605-54.48-63.884-54.48s-63.884 24.4-63.884 54.48c0 30.087 28.605 54.487 63.884 54.487s63.884-24.4 63.884-54.487z" />
<glyph unicode="&#xe928;" d="M361.014-32.908c1.505 12.555 3.066 25.276 4.765 37.914 4.836 35.875 17.351 73.723 45.976 94.642 0-26.734 44.044-80.222 59.383-80.222 18.196 0 72.656 54.561 72.656 84.574 37.492-8.565 59.571-59.537 59.571-97.961 0-16.62 0.783-34.825 1.912-53.18-30.336-5.706-61.633-8.69-93.627-8.69-52.475 0-103.074 8.028-150.637 22.924v0z" />
<glyph unicode="&#xe929;" d="M798.784 312.908l-29.182-108.988c109.752-35.292 129.471 104.749 29.182 108.988z" />
<glyph unicode="&#xe92a;" d="M799.386 248.989c-29.785-124.186-159.343-206.607-381.47-178.666-158.082 19.886-255.253 113.917-239.619 236.346 0 0-127.593 518.466 346.286 480.914 538.688-42.703 274.803-538.594 274.803-538.594z" />
<glyph unicode="&#xe92b;" d="M307.632 371.306c-1.898 0-3.763 0.932-4.876 2.636-5.808 8.88-15.647 8.035-18.531 7.579-5.701-0.912-9.37-3.783-9.826-5.506-0.825-3.105-4.004-4.943-7.116-4.131-3.105 0.825-4.956 4.011-4.131 7.116 1.838 6.928 9.383 12.428 19.215 14.017 12.361 1.999 23.615-2.75 30.128-12.696 1.764-2.696 1.006-6.305-1.683-8.062-0.979-0.644-2.086-0.952-3.179-0.952z" />
<glyph unicode="&#xe92c;" d="M653.098 344.871c-2.146 0-4.219 1.201-5.231 3.26-4.675 9.531-14.527 9.906-17.458 9.812-5.761-0.215-9.745-2.609-10.409-4.272-1.201-2.971-4.581-4.44-7.572-3.219-2.985 1.201-4.427 4.588-3.226 7.572 2.676 6.647 10.832 11.187 20.778 11.556 12.468 0.342 23.099-5.641 28.344-16.325 1.415-2.884 0.221-6.372-2.663-7.787-0.825-0.409-1.704-0.597-2.562-0.597z" />
<glyph unicode="&#xe92d;" d="M317.342 294.673c0-26.734-19.544-48.364-39.698-48.364-20.134 0-36.506 21.63-36.506 48.364 0 26.707 18.183 58.773 38.095 55.829 28.424-4.192 38.109-29.122 38.109-55.829z" />
<glyph unicode="&#xe92e;" d="M317.555 289.309c0-26.734-15.654-48.357-34.93-48.357-19.282 0-34.936 21.623-34.936 48.357 0 26.707 15.654 48.344 34.936 48.344 19.276 0 34.93-21.637 34.93-48.344z" />
<glyph unicode="&#xe92f;" d="M309.076 288.038c0-20.255-11.838-36.653-26.452-36.653-14.594 0-26.445 16.398-26.445 36.653 0 20.242 11.851 36.62 26.445 36.62 14.614 0 26.452-16.378 26.452-36.62z" />
<glyph unicode="&#xe930;" d="M335.989 303.483c-8.766-0.402-13.481 3.266-17.472 9.926-9.772 16.325-28.243 27.438-36.479 29.242-24.299 5.325-29.081-5.661-29.933-9.363-0.845-3.796-9.383-3.548-10.765-3.347-4.393 0.778-8.525-2.039-9.323-6.365-0.818-4.353 2.072-8.323 6.385-9.336 13.045-3.085 24.413 5.473 29.309 15.527 11.328 5.983 34.185-12.133 41.757-21.905 5.091-5.084 11.281-12.602 26.519-4.38z" />
<glyph unicode="&#xe931;" d="M640.109 266.526c0-26.734-19.544-48.364-39.698-48.364-20.134 0-36.506 21.63-36.506 48.364 0 26.707 18.182 58.773 38.095 55.829 28.424-4.192 38.109-29.122 38.109-55.829z" />
<glyph unicode="&#xe932;" d="M640.321 261.162c0-26.734-15.654-48.357-34.93-48.357-19.282 0-34.936 21.623-34.936 48.357 0 26.707 15.654 48.344 34.936 48.344 19.276 0 34.93-21.637 34.93-48.344z" />
<glyph unicode="&#xe933;" d="M631.842 259.891c0-20.255-11.838-36.653-26.452-36.653-14.594 0-26.445 16.398-26.445 36.653 0 20.242 11.851 36.62 26.445 36.62 14.614 0 26.452-16.378 26.452-36.62z" />
<glyph unicode="&#xe934;" d="M658.755 275.335c-8.766-0.402-13.481 3.266-17.472 9.926-9.772 16.325-28.243 27.438-36.479 29.242-24.299 5.325-29.081-5.661-29.933-9.363-0.845-3.796-9.383-3.548-10.765-3.347-4.393 0.778-8.525-2.039-9.323-6.365-0.818-4.353 2.072-8.323 6.385-9.336 13.045-3.092 24.413 5.473 29.309 15.527 11.328 5.983 34.185-12.133 41.757-21.905 5.091-5.084 11.281-12.602 26.519-4.38z" />
<glyph unicode="&#xe935;" d="M214.655 247.041c1.093 57.264-13.789 205.36 87.566 299.934 7.887-65.621 73.528-157.432 101.362-137.908 21.576 15.117-33.293 63.702-19.631 163.24 20.791-80.597 91.275-112.469 127.043-129.786 64.635-31.268 214.977-34.46 311.993-141.972 0 0 224.629 534.435-306.38 548.674-358.848 9.624-512.886-396.393-301.953-602.182z" />
<glyph unicode="&#xe936;" d="M479.492 136.587l-98.867 13.36c-3.903 0.523-6.633 4.111-6.11 8.015v0c0.53 3.897 4.118 6.633 8.015 6.11l98.874-13.36c3.897-0.53 6.633-4.118 6.103-8.015v0c-0.523-3.903-4.111-6.64-8.015-6.11z" />
<glyph unicode="&#xe937;" d="M10.105 912.869c0 10.664 4.526 20.59 12.31 27.572l-4.499 5.015c-9.193-8.247-14.548-19.989-14.548-32.587h6.737zM51.446 949.895h33.684v6.737h-33.684v-6.737zM118.814 949.895h33.684v6.737h-33.684v-6.737zM186.183 949.895h33.684v6.737h-33.684v-6.737zM253.551 949.895h33.684v6.737h-33.684v-6.737zM320.919 949.895h33.684v6.737h-33.684v-6.737zM388.288 949.895h33.684v6.737h-33.684v-6.737zM455.656 949.895h33.684v6.737h-33.684v-6.737zM523.025 949.895h33.684v6.737h-33.684v-6.737zM590.393 949.895h33.684v6.737h-33.684v-6.737zM657.762 949.895h33.684v6.737h-33.684v-6.737zM725.13 949.895h33.684v6.737h-33.684v-6.737zM792.498 949.895h33.684v6.737h-33.684v-6.737zM859.867 949.895h33.684v6.737h-33.684v-6.737zM927.235 949.895h33.684v6.737h-33.684v-6.737zM992.728 946.338c9.476-4.498 16.666-12.86 19.648-22.936l6.46 1.912c-3.527 11.916-12.019 21.794-23.22 27.11l-2.889-6.086zM1013.895 890.82v-33.684h6.737v33.684h-6.737zM1013.895 823.451v-33.684h6.737v33.684h-6.737zM1013.895 756.083v-33.684h6.737v33.684h-6.737zM1013.895 688.714v-33.684h6.737v33.684h-6.737zM1013.895 621.346v-33.684h6.737v33.684h-6.737zM1013.895 553.978v-33.684h6.737v33.684h-6.737zM1013.895 486.609v-33.684h6.737v33.684h-6.737zM1013.895 419.241v-33.684h6.737v33.684h-6.737zM1013.895 351.872v-33.684h6.737v33.684h-6.737zM1013.895 284.504v-33.684h6.737v33.684h-6.737zM1013.895 217.135v-33.684h6.737v33.684h-6.737zM1013.895 149.767v-33.684h6.737v33.684h-6.737zM1013.895 82.399v-33.684h6.737v33.684h-6.737zM1013.895 15.030v-31.899c0-0.548-0.012-1.095-0.036-1.64l6.73-0.293c0.028 0.642 0.042 1.287 0.042 1.932v31.899h-6.737zM1000.314-45.531c-6.567-5.379-14.771-8.364-23.445-8.364h-6.1v-6.737h6.1c10.244 0 19.953 3.533 27.714 9.889l-4.269 5.212zM937.085-53.895h-33.684v-6.737h33.684v6.737zM869.717-53.895h-33.684v-6.737h33.684v6.737zM802.348-53.895h-33.684v-6.737h33.684v6.737zM734.98-53.895h-33.684v-6.737h33.684v6.737zM667.611-53.895h-33.684v-6.737h33.684v6.737zM600.243-53.895h-33.684v-6.737h33.684v6.737zM532.875-53.895h-33.684v-6.737h33.684v6.737zM465.506-53.895h-33.684v-6.737h33.684v6.737zM398.138-53.895h-33.684v-6.737h33.684v6.737zM330.769-53.895h-33.684v-6.737h33.684v6.737zM263.401-53.895h-33.684v-6.737h33.684v6.737zM196.032-53.895h-33.684v-6.737h33.684v6.737zM128.664-53.895h-33.684v-6.737h33.684v6.737zM61.296-53.895h-14.165c-6.143 0-12.062 1.494-17.362 4.312l-3.163-5.948c6.267-3.333 13.272-5.101 20.525-5.101h14.165v6.737zM11.061-25.27c-0.633 2.731-0.956 5.544-0.956 8.401v23.834h-6.737v-23.834c0-3.37 0.381-6.693 1.13-9.922l6.563 1.521zM10.105 40.649v33.684h-6.737v-33.684h6.737zM10.105 108.018v33.684h-6.737v-33.684h6.737zM10.105 175.386v33.684h-6.737v-33.684h6.737zM10.105 242.755v33.684h-6.737v-33.684h6.737zM10.105 310.123v33.684h-6.737v-33.684h6.737zM10.105 377.492v33.684h-6.737v-33.684h6.737zM10.105 444.86v33.684h-6.737v-33.684h6.737zM10.105 512.228v33.684h-6.737v-33.684h6.737zM10.105 579.597v33.684h-6.737v-33.684h6.737zM10.105 646.965v33.684h-6.737v-33.684h6.737zM10.105 714.334v33.684h-6.737v-33.684h6.737zM10.105 781.702v33.684h-6.737v-33.684h6.737zM10.105 849.070v33.684h-6.737v-33.684h6.737z" />
<glyph unicode="&#xe938;" d="M309.895 454.737h404.211v-13.474h-404.211v13.474z" />
<glyph unicode="&#xe939;" d="M518.737 650.105v-404.211h-13.474v404.211h13.474z" />
<glyph unicode="&#xe93a;" d="M452.567 438.004l-2.662-10.461 42.234-24.384 54.2 93.885c0 0-50.322 43.036-80.627 24.196-23.987-14.908-43.222-27.839-74.227-72.268-30.999-44.432-41.8-57.993-31.964-56.067 9.842 1.922 64.236 40.054 93.046 45.099z" />
<glyph unicode="&#xe93b;" d="M542.097 386.314l-7.728-7.536-42.228 24.38 54.2 93.885c0 0 62.436-22.061 61.273-57.726-0.923-28.228-2.503-51.352-25.483-100.414-22.974-49.066-29.313-65.199-32.567-55.719s2.575 75.659-7.466 103.13z" />
<glyph unicode="&#xe93c;" d="M452.926 472.438c0 0-4.604-11.685-4.511-17.914l54.954-31.732 8.886 15.392-59.329 34.254z" />
<glyph unicode="&#xe93d;" d="M448.343 449.001c0 0-2.336-5.933-2.291-9.1l50.396-29.096 4.515 7.82-52.62 30.376z" />
<glyph unicode="&#xe93e;" d="M449.997 429.634l-0.845-19.007 35.391-20.437 8.445 14.627z" />
<glyph unicode="&#xe93f;" d="M571.578 403.933c0 0-7.818-9.83-13.258-12.864l-54.948 31.728 8.882 15.39 59.324-34.255z" />
<glyph unicode="&#xe940;" d="M553.577 388.246c0 0-3.975-4.99-6.736-6.534l-50.4 29.090 4.515 7.82 52.62-30.376z" />
<glyph unicode="&#xe941;" d="M535.974 379.998l-16.035-10.245-35.396 20.436 8.445 14.627z" />
<glyph unicode="&#xe942;" d="M578.696 654.966c-78.858-68.89-123.228-176.83-123.228-176.83l59.889-34.577 107.377 185.982-44.037 25.425z" />
<glyph unicode="&#xe943;" d="M515.356 443.56l59.889-34.577c0 0 71.293 92.396 91.526 195.129l-44.038 25.43-107.377-185.982z" />
<glyph unicode="&#xe944;" d="M666.13 704.711c-32.56-9.092-61.815-27.362-87.435-49.744l44.037-25.425 43.399 75.168z" />
<glyph unicode="&#xe945;" d="M622.733 629.541l44.038-25.43c6.572 33.384 7.768 67.849-0.64 100.598l-43.399-75.168z" />
<glyph unicode="&#xe946;" d="M557.519 568.803c7.21 12.489 23.178 16.767 35.662 9.556l3.901 6.757c-16.187 9.346-36.97 3.777-46.321-12.412-9.345-16.192-3.776-36.975 12.413-46.326l3.9 6.762c-12.487 7.205-16.766 23.174-9.556 35.662z" />
<glyph unicode="&#xe947;" d="M557.519 568.803c-7.21-12.489-2.932-28.457 9.556-35.662l26.107 45.218c-12.484 7.212-28.452 2.933-35.662-9.556z" />
<glyph unicode="&#xe948;" d="M609.496 538.794c9.345 16.192 3.782 36.971-12.412 46.321l-3.901-6.757c12.487-7.205 16.766-23.174 9.556-35.662s-23.174-16.766-35.662-9.556l-3.901-6.757c16.189-9.351 36.971-3.782 46.321 12.412z" />
<glyph unicode="&#xe949;" d="M602.739 542.695c7.21 12.489 2.932 28.457-9.556 35.662l-26.107-45.218c12.484-7.212 28.452-2.933 35.662 9.556z" />
<glyph unicode="&#xe94a;" d="M448.363 411.081l36.117-20.852-103.6-179.426c0 0 0.986 118.006 67.483 200.278z" />
<glyph unicode="&#xe94b;" d="M381.016 210.728l103.593 179.428 36.117-20.852c-37.847-98.333-138.895-158.096-139.706-158.574l-0.004-0.001z" />
<glyph unicode="&#xe94c;" d="M463.078 402.588l21.491-12.412-83.633-144.849c0 0 11.481 89.096 62.141 157.261z" />
<glyph unicode="&#xe94d;" d="M506.144 377.722l-21.495 12.406-83.632-144.854c0 0 71.424 54.492 105.126 132.448z" />
<glyph unicode="&#xe94e;" d="M513.473 481.294l-63.077-138.453c-1.625-2.821-0.659-6.424 2.157-8.050l90.452 156.66c-9.909 5.721-22.577 2.326-28.298-7.583-0.485-0.839-0.879-1.702-1.233-2.574z" />
<glyph unicode="&#xe94f;" d="M460.609 336.943l87.748 123.078c0.826 0.957 1.578 1.994 2.23 3.13 5.722 9.904 2.326 22.577-7.583 28.298l-90.451-156.665c2.821-1.625 6.429-0.658 8.055 2.158z" />
<glyph unicode="&#xe950;" d="M307.2 544c0-1.767-1.433-3.2-3.2-3.2s-3.2 1.433-3.2 3.2c0 1.767 1.433 3.2 3.2 3.2s3.2-1.433 3.2-3.2z" />
<glyph unicode="&#xe951;" d="M598.4 748.8c0-1.767-1.433-3.2-3.2-3.2s-3.2 1.433-3.2 3.2c0 1.767 1.433 3.2 3.2 3.2s3.2-1.433 3.2-3.2z" />
<glyph unicode="&#xe952;" d="M739.2 720c0-1.767-1.433-3.2-3.2-3.2s-3.2 1.433-3.2 3.2c0 1.767 1.433 3.2 3.2 3.2s3.2-1.433 3.2-3.2z" />
<glyph unicode="&#xe953;" d="M265.6 552l-19.2-35.2 28.8 24z" />
<glyph unicode="&#xe954;" d="M275.2 540.8l-1.6-12.8-27.2-11.2z" />
<glyph unicode="&#xe955;" d="M716.8 422.4l-12.8-22.4 19.2 15.273z" />
<glyph unicode="&#xe956;" d="M723.2 416.291l-1.067-8.145-18.133-7.127z" />
<glyph unicode="&#xe957;" d="M537.6 764.8l-12.8-22.4 19.2 15.273z" />
<glyph unicode="&#xe958;" d="M544 758.691l-1.067-8.145-18.133-7.127z" />
<glyph unicode="&#xe959;" d="M80.998 349.618l166.464 149.885 1.071-1.189-166.464-149.885-1.071 1.189z" />
<glyph unicode="&#xe95a;" d="M365.335 631.12l166.464 149.885 1.071-1.189-166.464-149.885-1.071 1.189z" />
<glyph unicode="&#xe95b;" d="M827.462 573.315l166.464 149.885 1.071-1.189-166.464-149.885-1.071 1.189z" />
<glyph unicode="&#xe95c;" d="M795.462 557.315l166.464 149.885 1.071-1.189-166.464-149.885-1.071 1.189z" />
<glyph unicode="&#xe95d;" d="M827.462 413.859l-2.378 2.141-101.884-113.154 2.378-2.141 101.884 113.154z" />
<glyph unicode="&#xe95e;" d="M29.335 285.52l166.464 149.885 1.071-1.189-166.464-149.885-1.071 1.189z" />
<glyph unicode="&#xe95f;" d="M627.2 308.8l14.4-4.8 3.2 6.4z" />
<glyph unicode="&#xe960;" d="M604.8 240l-19.2-27.2 19.2 17.6z" />
<glyph unicode="&#xe961;" d="M512 201.481l-226.235-118.036c-35.639-18.594-59.59-1.553-53.464 38.262l39.502 256.762-176.062 176.062c-28.439 28.439-19.379 56.434 20.436 62.56l256.762 39.502 107.68 225.149c17.332 36.239 45.481 36.136 62.763 0l107.68-225.149 256.762-39.502c39.726-6.112 48.858-34.138 20.436-62.56l-176.062-176.062 39.502-256.762c6.112-39.726-17.877-56.829-53.464-38.262l-226.235 118.036z" />
<glyph unicode="&#xe962;" d="M512 242.548l243.714-126.377-42.307 274.997 189.108 189.108c0 0 1.205 0.671-0.227 0.829l-275.773 42.427-8.299 17.352-106.245 222.288-114.486-239.639-275.773-42.427-0.227-0.829 189.108-189.108-42.307-274.997 0.637-0.446 243.077 126.823z" />
<glyph unicode="&#xe963;" d="M813.949 198.564v761.436h-603.897v-761.436l303.282-262.564z" />
<glyph unicode="&#xe964;" d="M413.092 849.461l-15.596-14.887c17.014-13.706 30.011-26.23 39.227-38.046l16.069 16.069c-10.87 12.288-24.103 24.576-39.7 36.864v0zM548.26 637.729h54.114l5.435 22.213c-6.38-0.473-15.596-0.945-27.412-1.182-12.052-0.236-23.867-0.473-35.21-0.473-18.196 0-33.792 0.236-47.025 0.473-13.706 0.473-23.867 2.599-30.72 5.908-5.908 3.072-11.579 7.798-16.778 14.178-1.182 1.418-2.363 2.363-3.308 3.308v89.561h-52.933v-20.795h31.902v-66.875c-9.452-4.726-20.086-16.778-31.902-35.919l16.542-15.36c12.052 21.268 20.559 31.902 25.285 31.902 2.836 0 5.671-1.89 8.743-5.908 7.089-8.034 15.124-13.706 24.576-16.542 9.689-2.363 21.977-3.781 37.1-4.017 14.887-0.236 28.83-0.473 41.59-0.473v0zM466.734 816.377v-21.031h25.994v-16.778c0-8.743-0.473-17.014-1.418-25.049h-32.847v-21.268h28.593c-5.199-18.905-14.415-33.083-27.648-42.535l13.47-17.959c17.487 13.233 29.302 33.319 35.919 60.495h37.573v-64.276h21.74v64.276h35.682v21.268h-35.682v41.826h28.121v21.031h-28.121v35.446h-21.74v-35.446h-32.138v35.682h-21.504v-35.682h-25.994zM514.232 795.346h32.138v-41.826h-33.792c0.945 9.452 1.654 19.377 1.654 30.247v11.579zM479.967 602.283v-21.977h115.318v21.977h-115.318zM474.059 543.206v-21.977h71.838v-94.759c0-4.962-3.545-7.562-10.398-7.562-9.925 0-20.559 0.473-31.429 1.418l4.962-21.977h34.265c16.778 0 25.285 7.562 25.285 22.686v100.194h36.864v21.977h-131.387zM439.795 613.862c-10.87-21.74-27.648-40.645-50.57-56.95l6.853-22.449c30.247 20.795 51.515 43.953 64.276 69.947l-20.559 9.452zM450.901 559.747c-12.761-25.521-32.847-47.734-59.786-66.639l6.617-22.213c9.925 6.853 18.905 13.942 27.412 21.268v-94.759h21.977v116.736c9.689 11.343 17.723 23.394 24.103 36.155l-20.322 9.452zM487.293 380.153v-40.881h-83.889v-114.137h22.449v13.47h61.44v-79.163h23.158v79.163h61.676v-13.47h22.449v114.137h-84.126v40.881h-23.158zM425.853 260.582v56.714h61.44v-56.714h-61.44zM510.451 260.582v56.714h61.676v-56.714h-61.676z" />
<glyph unicode="&#xe965;" d="M1015.832 450.921c0-276.193-225.393-500.117-503.423-500.117-278.036 0-503.429 223.924-503.429 500.117 0 276.207 225.393 500.124 503.429 500.124 278.029 0 503.423-223.917 503.423-500.124z" />
<glyph unicode="&#xe966;" d="M676.235 189.393c0.771-20.781 21.321-114.6 30.651-116.113 8.612-1.406 27.451 18.149 41.543 45.507 13.883-9.048 27.156-18.969 37.425-15.211 9.946 3.705 34.957 65.855 41.818 120.55l-151.436-34.733z" />
<glyph unicode="&#xe967;" d="M776.472 785.932c12.086 10.68 25.305 10.561 20.47 22.367-5.895 14.432-87.619 12.166-114.534-2.512-34.655 47.493-109.457 84.351-126.392 69.347-9.638-8.528 1.918-19.176 7.518-35.913-504.254 28.757-449.358-540.687-340.357-619.335 71.315-51.437 72.998-132.097 253.126-153.658 221.946-26.551 299.874 88.842 373.382 124.015 36.6 17.51 282.925 388.142-73.213 595.689z" />
<glyph unicode="&#xe968;" d="M816.111 261.542l-50.657-102.754c107.66-51.037 147.962 93.106 50.657 102.754z" />
<glyph unicode="&#xe969;" d="M659.98-27.031c-11.552 36.812-20.79 123.105-85.242 102.529-12.807-4.084-17.327-15.092-17.327-28.784v0c0-26.9 17.445-64.157 23.765-79.606 0.584-1.463 1.84-5.394 3.563-11.021 25.765 3.74 50.896 9.418 75.24 16.882v0z" />
<glyph unicode="&#xe96a;" d="M437.94 55.64c0 9.55-3.527 17.553-12.614 22.432-62.093 33.327-86.647-58.426-105.017-89.302-0.109-0.183-0.222-0.372-0.337-0.565 23.838-9.74 48.595-17.715 74.106-23.76 2.457 4.209 4.174 7.113 4.891 8.242 10.137 15.698 38.972 55.647 38.972 82.953v0z" />
<glyph unicode="&#xe96b;" d="M421.751 79.951c5.097 26.811 49.537 46.36 72.381 52.53 18.162-11.866 47.049-47.206 41.965-74.017-5.117-26.811-34.856-43.721-66.405-37.811-31.583 5.923-53.052 32.495-47.941 59.299z" />
<glyph unicode="&#xe96c;" d="M374.961-30.627c2.182 22.111 5.247 41.911 9.522 56.629 10.241 35.16 12.039 54.322 36.492 62.251-1.462-4.824 7.914-59.919 55.245-59.919 57.364 0 67.009 58.326 65.091 63.75 41.482-10.254 41.194-33.161 46.070-64.603 3.43-22.118 5.906-45.846 7.522-69.813-27.182-4.512-55.102-6.86-83.574-6.86-47.26 0-92.999 6.47-136.369 18.566v0z" />
<glyph unicode="&#xe96d;" d="M481.052 6.413c0.047-3.438-2.897-6.256-6.519-6.29-3.635-0.033-6.6 2.732-6.633 6.176-0.027 3.451 2.904 6.243 6.533 6.27 3.628 0.040 6.586-2.705 6.62-6.156z" />
<glyph unicode="&#xe96e;" d="M551.259 78.956c-12.85-17.057-52.334-43.561-76.774-50.697 9.51-10.048 25.044-23.54 35.285-33.467 27.512 19.549 59.115 60.019 59.115 60.019s-11.616 20.408-17.626 24.146z" />
<glyph unicode="&#xe96f;" d="M410.878 83.058c12.294-16.897 42.522-47.699 66.761-54.515-9.879-10.161-27.244-22.207-39.92-33.754-26.888 19.182-49.477 70.306-49.477 70.306s16.506 14.138 22.636 17.963z" />
<glyph unicode="&#xe970;" d="M358.97-25.879c7.269 42.221 17.058 82.633 29.273 108.937 14.279 5.317 28.149 5.57 32.737 5.197 0-46.58 28.632-100.309 53.501-125.008 36.452 26.731 67.338 79.994 76.781 115.706 11.831 0 39.799-2.552 51.348-10.454 2.31-21.021 7.437-62.224 11.601-107.239-33.212-6.852-67.624-10.453-102.881-10.453-53.109 0-104.297 8.17-152.36 23.314v0z" />
<glyph unicode="&#xe971;" d="M810.236 220.729c-44.601-141.984-227.848-181.368-396.521-147.208-151.825 30.756-245.226 122.243-212.811 243.952-10.262 88.376-46.13 515.742 406.648 441.138 387.909-63.923 317.56-450.699 202.684-537.882z" />
<glyph unicode="&#xe972;" d="M688.653 323.781c-1.522 0-3.045 0.48-4.339 1.466-12.804 9.754-47.472 17.123-61.831 13.132-3.763-1.053-7.74 1.153-8.806 4.93-1.060 3.778 1.16 7.696 4.97 8.748 18.82 5.23 57.774-2.898 74.36-15.544 3.132-2.385 3.729-6.843 1.328-9.954-1.408-1.819-3.535-2.778-5.681-2.778z" />
<glyph unicode="&#xe973;" d="M337.233 373.125c-1.241 0-2.488 0.32-3.628 0.986-17.82 10.461-44.514 9.774-55.802 4.671-3.595-1.612-7.834-0.047-9.457 3.525-1.643 3.565-0.047 7.776 3.548 9.401 16.331 7.369 47.948 6.969 68.981-5.37 3.4-1.992 4.527-6.343 2.522-9.721-1.335-2.245-3.722-3.491-6.164-3.491z" />
<glyph unicode="&#xe974;" d="M170.274 734.859c-6.647-20.208 51.979-57.7 71.972-55.041l141.65 139.066c-72.529-11.607-201.342-46.633-213.623-84.025z" />
<glyph unicode="&#xe975;" d="M683.918 248.929c-1.616-28.044-20.322-49.725-41.724-48.505-21.415 1.226-37.505 24.886-35.882 52.936 1.623 28.017 20.322 49.731 41.744 48.505 21.409-1.219 37.478-24.912 35.862-52.936z" />
<glyph unicode="&#xe976;" d="M675.979 240.958c-1.616-28.044-19.45-49.771-39.819-48.612s-35.58 24.772-33.964 52.816c1.616 28.024 19.457 49.785 39.832 48.625 20.362-1.166 35.567-24.812 33.951-52.829z" />
<glyph unicode="&#xe977;" d="M659.31 241.794c-1.167-20.182-13.977-35.819-28.625-34.986-14.628 0.833-25.574 17.83-24.4 38.011 1.167 20.148 13.984 35.806 28.612 34.973 14.655-0.833 25.574-17.85 24.413-37.998z" />
<glyph unicode="&#xe978;" d="M328.784 293.083c-5.252-27.617-26.539-46.74-47.472-42.809-20.939 3.931-33.696 29.463-28.431 57.074 5.245 27.577 26.506 46.72 47.438 42.782 20.952-3.931 33.716-29.47 28.464-57.047z" />
<glyph unicode="&#xe979;" d="M331.247 286.875c-5.245-27.604-25.781-46.873-45.822-43.102-20.040 3.764-32.052 29.143-26.801 56.747 5.252 27.584 25.781 46.873 45.815 43.108 20.034-3.771 32.066-29.163 26.808-56.754z" />
<glyph unicode="&#xe97a;" d="M316.923 288.931c-3.789-19.849-18.511-33.714-32.931-31.009-14.406 2.705-23.038 20.961-19.249 40.823 3.763 19.829 18.525 33.687 32.918 30.989 14.413-2.705 23.038-20.968 19.262-40.803z" />
<glyph unicode="&#xe97b;" d="M597.828 810.602c-343.053 66.721-423.275-184.567-427.339-195.813-18.276-54.755-87.982-119.671-70.302-139.373 14.172-15.798 100.953-43.775 161.429 11.54-4.863-33.267-9.785-77.748 3.333-78.501 24.373-1.386 63.32 64.656 94.031 97.324-9.578-39.057-20.168-74.044 2.025-83.059 19.007-7.716 85.118 74.437 155.916 140.772 49.953-81.026 121.563-206.094 147.801-200.99 28.25 5.503 38.243 39.444 38.545 97.090 12.314-72.052 46.439-151.379 65.849-150.693 20.242 0.706 37.995 29.943 44.514 67.368 10.114-59.372-22.81-152.592-11.509-158.901 17.156-9.594 111.912 40.083 136.305 162.246 24.373 122.143 16.083 361.631-340.598 430.991z" />
<glyph unicode="&#xe97c;" d="M504.447 133.004l-98.867 13.272c-3.903 0.52-6.633 4.084-6.11 7.962 0.53 3.871 4.118 6.59 8.015 6.070l98.874-13.272c3.897-0.526 6.633-4.091 6.103-7.962v0c-0.523-3.878-4.111-6.596-8.015-6.070z" />
<glyph unicode="&#xe97d;" d="M996.888 469.356c0-267.398-215.376-484.19-481.048-484.19-265.679 0-481.055 216.792-481.055 484.19 0 267.41 215.376 484.196 481.055 484.196 265.672 0 481.048-216.786 481.048-484.196z" />
<glyph unicode="&#xe97e;" d="M672.384 216.156c0.737-20.119 20.374-110.951 29.288-112.415 8.229-1.361 26.231 17.571 39.696 44.058 13.266-8.76 25.949-18.365 35.761-14.727 9.504 3.587 33.403 63.758 39.959 116.711l-144.705-33.627z" />
<glyph unicode="&#xe97f;" d="M768.166 793.698c11.549 10.34 24.181 10.224 19.56 21.655-5.633 13.972-83.725 11.779-109.444-2.432-33.115 45.98-104.592 81.665-120.775 67.138-9.21-8.257 1.833-18.565 7.184-34.769-481.843 27.841-429.387-523.468-325.23-599.611 68.145-49.799 69.754-127.89 241.876-148.764 212.082-25.706 286.546 86.013 356.787 120.065 34.973 16.952 270.351 375.781-69.959 576.718z" />
<glyph unicode="&#xe980;" d="M806.044 286.008l-48.406-99.481c102.875-49.412 141.386 90.141 48.406 99.481z" />
<glyph unicode="&#xe981;" d="M656.852 6.624c-11.039 35.639-19.866 119.186-81.453 99.265-12.238-3.954-16.557-14.612-16.557-27.868v0c0-26.043 16.67-62.114 22.709-77.071 0.558-1.417 1.759-5.222 3.405-10.67 24.62 3.62 48.635 9.118 71.896 16.344v0z" />
<glyph unicode="&#xe982;" d="M444.68 86.663c0 9.246-3.37 16.994-12.054 21.718-59.333 32.266-82.796-56.565-100.35-86.458-0.104-0.177-0.212-0.36-0.322-0.547 22.779-9.43 46.435-17.15 70.812-23.004 2.347 4.074 3.988 6.886 4.673 7.979 9.686 15.198 37.24 53.875 37.24 80.311v0z" />
<glyph unicode="&#xe983;" d="M429.211 110.2c4.871 25.957 47.336 44.883 69.164 50.857 17.355-11.489 44.958-45.703 40.1-71.66-4.89-25.957-33.307-42.329-63.454-36.607-30.179 5.735-50.694 31.46-45.81 57.411z" />
<glyph unicode="&#xe984;" d="M384.5 3.145c2.085 21.406 5.014 40.576 9.099 54.825 9.786 34.040 11.504 52.592 34.871 60.268-1.397-4.67 7.562-58.010 52.79-58.010 54.815 0 64.031 56.469 62.198 61.72 39.639-9.927 39.363-32.105 44.022-62.545 3.278-21.414 5.644-44.387 7.188-67.591-25.973-4.368-52.65-6.641-79.855-6.641-45.162 0-88.869 6.264-130.313 17.975v0z" />
<glyph unicode="&#xe985;" d="M485.876 39.004c0.045-3.329-2.769-6.057-6.229-6.089-3.474-0.032-6.306 2.645-6.338 5.98-0.026 3.341 2.775 6.044 6.242 6.070 3.467 0.039 6.293-2.619 6.326-5.96z" />
<glyph unicode="&#xe986;" d="M552.963 109.236c-12.279-16.514-50.008-42.174-73.362-49.083 9.088-9.728 23.931-22.79 33.717-32.401 26.289 18.926 56.488 58.107 56.488 58.107s-11.1 19.758-16.842 23.377z" />
<glyph unicode="&#xe987;" d="M418.821 113.208c11.747-16.359 40.632-46.18 63.794-52.779-9.447-9.837-26.033-21.5-38.145-32.679-25.693 18.571-47.278 68.067-47.278 68.067s15.772 13.688 21.63 17.391z" />
<glyph unicode="&#xe988;" d="M369.22 7.741c6.946 40.876 16.3 80.001 27.972 105.467 13.644 5.148 26.898 5.393 31.282 5.031 0-45.096 27.359-97.114 51.123-121.027 34.832 25.88 64.345 77.446 73.369 112.021 11.305 0 38.030-2.471 49.066-10.121 2.207-20.352 7.107-60.243 11.086-103.825-31.735-6.633-64.615-10.119-98.304-10.119-50.75 0-99.665 7.91-145.593 22.572v0z" />
<glyph unicode="&#xe989;" d="M800.43 246.494c-42.619-137.463-217.721-175.592-378.898-142.52-145.077 29.776-234.327 118.35-203.353 236.183-9.806 85.561-44.080 499.317 388.575 427.089 370.669-61.887 303.446-436.346 193.675-520.752z" />
<glyph unicode="&#xe98a;" d="M684.251 346.265c-1.455 0-2.91 0.464-4.147 1.419-12.234 9.444-45.362 16.578-59.083 12.714-3.595-1.019-7.396 1.116-8.415 4.773-1.013 3.658 1.109 7.45 4.749 8.47 17.983 5.064 55.206-2.806 71.055-15.049 2.993-2.309 3.563-6.625 1.269-9.637-1.346-1.761-3.377-2.69-5.428-2.69z" />
<glyph unicode="&#xe98b;" d="M348.449 394.037c-1.186 0-2.378 0.31-3.467 0.955-17.028 10.127-42.536 9.463-53.322 4.522-3.442-1.561-7.486-0.045-9.036 3.412-1.57 3.451-0.045 7.528 3.39 9.102 15.606 7.134 45.817 6.747 65.915-5.199 3.249-1.929 4.326-6.141 2.41-9.411-1.275-2.174-3.557-3.38-5.89-3.38z" />
<glyph unicode="&#xe98c;" d="M188.91 744.251c-6.351-19.565 49.669-55.862 68.773-53.289l135.355 134.637c-69.305-11.237-192.394-45.148-204.128-81.349z" />
<glyph unicode="&#xe98d;" d="M679.725 273.796c-1.545-27.151-19.419-48.141-39.869-46.961-20.463 1.187-35.838 24.093-34.287 51.25 1.551 27.125 19.419 48.147 39.889 46.961 20.457-1.18 35.813-24.119 34.268-51.25z" />
<glyph unicode="&#xe98e;" d="M672.14 266.079c-1.545-27.151-18.586-48.186-38.049-47.064s-33.999 23.983-32.454 51.134c1.545 27.131 18.592 48.199 38.062 47.077 19.457-1.129 33.986-24.022 32.442-51.147z" />
<glyph unicode="&#xe98f;" d="M656.212 266.889c-1.115-19.539-13.356-34.679-27.353-33.872-13.978 0.806-24.437 17.262-23.315 36.801 1.115 19.507 13.362 34.666 27.34 33.859 14.003-0.806 24.437-17.281 23.328-36.788z" />
<glyph unicode="&#xe990;" d="M340.376 316.544c-5.018-26.738-25.36-45.251-45.362-41.445-20.008 3.806-32.198 28.525-27.167 55.256 5.012 26.699 25.328 45.232 45.33 41.419 20.021-3.806 32.217-28.531 27.199-55.23z" />
<glyph unicode="&#xe991;" d="M342.729 310.534c-5.012-26.725-24.636-45.38-43.785-41.729-19.15 3.645-30.628 28.215-25.61 54.94 5.018 26.706 24.636 45.38 43.779 41.736 19.143-3.651 30.641-28.234 25.616-54.946z" />
<glyph unicode="&#xe992;" d="M329.041 312.525c-3.615-19.216-17.688-32.64-31.467-30.021-13.766 2.619-22.014 20.294-18.393 39.523 3.595 19.197 17.701 32.614 31.455 30.002 13.773-2.619 22.014-20.3 18.406-39.504z" />
<glyph unicode="&#xe993;" d="M698.651 451.518c0 0 137.79-264.475-131.381-354.784 0 0 176.32 6.018 233.16 149.758 56.84 143.746 34.409 280.821 34.409 280.821l-150.608-1.613 14.42-74.182z" />
<glyph unicode="&#xe994;" d="M603.531 807.442c-314.405 62.913-388.235-175.618-391.972-186.294-16.817-51.979 108.906 21.687 125.088 3.012 12.978-14.978-97.203-176.766-41.696-124.213-4.493-31.576-9.062-73.789 2.961-74.485 22.341-1.29 58.128 61.423 86.314 92.457-8.825-37.072-11.042-70.641 9.293-79.168 17.419-7.296 70.581 71.092 135.56 134.115 45.695-76.827 119.884-203.633 143.936-198.756 25.911 5.257 43.26 54.83 26.77 100.385 11.203-68.364 49.97-154.273 67.761-153.602 18.554 0.697 49.669 48.38 33.313 74.659 9.21-56.327-21.085-144.823-10.735-150.79 15.721-9.082 102.644 38.162 125.146 154.105 22.482 115.931 15.151 343.173-311.739 408.576z" />
<glyph unicode="&#xe995;" d="M219.59 454.743c0 0 56.077 11.289 70.497 38.704s6.409 40.316 6.409 40.316h-88.122l11.215-79.020z" />
<glyph unicode="&#xe996;" d="M597.462 817.582c-327.806 64.597-404.462-178.689-408.346-189.577-17.464-53.011-84.071-115.86-67.178-134.934 13.542-15.294 96.46-42.381 154.255 11.172-4.646-32.208-9.351-75.272 3.185-76.001 23.29-1.342 60.506 62.597 89.852 94.224-9.152-37.814-19.271-71.686 1.935-80.413 18.163-7.47 81.335 72.066 148.987 136.289 47.733-78.446 116.16-199.531 141.232-194.589 26.994 5.328 36.543 38.188 36.832 93.998 11.767-69.757 44.375-146.558 62.922-145.894 19.342 0.684 36.306 28.989 42.536 65.222 9.665-57.481-21.796-147.732-10.998-153.841 16.394-9.289 106.938 38.807 130.247 157.079 23.29 118.253 15.368 350.114-325.461 417.265z" />
<glyph unicode="&#xe997;" d="M402.918 13.463l-13.202 102.494c-60.82-5.27-91.070-65.054-89.397-98.224 2.339-46.709 32.768-68.86 58.846-64.358 14.881 2.567 40.562 19.958 43.753 60.088z" />
<glyph unicode="&#xe998;" d="M308.206 80.117c0.795 4.251 1.929 7.999 3.269 11.456l-0.058 0.032c11.241 45.019-37.139 68.486-12.991 85.071 19.912 13.714 42.1-9.753 50.989-54.211 8.575 2.213 17.387 3.303 25.392 4.47 0.468 0.058 0.955 0.019 1.429-0.058l12.196 5.573c9.709 4.464 20.893 0.355 25.020-9.102l0.077-0.2c3.147-7.16 1.25-15.378-4.082-20.887 6.358-0.735 11.991-4.638 14.33-10.979l0.090-0.11c3.416-9.244-1.384-19.797-10.805-23.603l-0.301-0.116c6.998 0.084 12.754-4.638 15.272-12.050 1.903-5.522-0.904-11.295-5.486-15.849 5.031-1.11 8.844-5.135 10.158-10.966 1.871-8.012-7.319-15.54-15.49-17.746-18.496-13.185-39.312-13.63-59.865-9.766-35.934 6.793-53.258 57.030-49.143 79.039z" />
<glyph unicode="&#xe999;" d="M300.823 174.106c12.337-14.247 36.948-46.982 30.319-74.89-8.754-36.846 27.238-82.116 80.745-63.164 4.63 1.64 8.699 2.688 12.27 3.235 2.693-1.902 4.661-4.992 5.515-8.911 1.775-7.844-6.928-15.211-14.67-17.391-17.522-12.895-37.235-13.327-56.699-9.547-34.037 6.651-50.438 55.849-46.541 77.401 0.737 4.167 1.827 7.831 3.095 11.218l-0.051 0.032c10.366 42.934-32.821 65.836-13.983 82.017v0z" />
<glyph unicode="&#xe99a;" d="M519.094 200.548c-1.961-90.031-120.794-99.688-113.123 12.037 25.046 11.282 84.565 2.49 113.123-12.037z" />
<glyph unicode="&#xe99b;" d="M1013.229 446.164c-0.776-275.543-225.871-498.688-503.421-498.688-278.043 0-503.429 223.917-503.429 500.117 0 275.375 224.041 498.785 500.938 500.118h4.983c276.404-1.331 500.155-223.971 500.929-498.689v-2.858z" />
<glyph unicode="&#xe99c;" d="M219.76 78.946c20.872 19.529-5.191 97.204-22.542 91.454-10.577-3.518-8.276-18.869-7.378-30.296-7.15 8.728-42.924 41.616-54.4 32.381-11.603-9.361 11.563-28.85 22.153-40.117-9.852 4.551-39.873 40.963-54.957 27.584-10.121-8.975 20.342-40.763 29.792-52.903-9.571 9.928-36.177 44.961-47.566 37.178-19.296-13.199 19.665-50.184 25.198-61.844-8.417 7.429-20.838 30.829-32.475 22.654-16.439-11.527 27.612-75.117 59.511-78.235 24.044-2.365 32.522 5.603 32.522 5.603 13.521-4.671 36.264-21.214 46.526-28.184l35.446 44.574c-10.912 9.321-27.042 21.134-31.831 30.149z" />
<glyph unicode="&#xe99d;" d="M229.241 75.679c28.652-13.012 63.984-34.607 118.431-6.496 34.393 17.763 35.6 24.413 67.136-15.698 13.803-17.576-79.336-149.7-229.424-39.75 0 17.976 24.715 55.275 43.857 61.944z" />
<glyph unicode="&#xe99e;" d="M694.627 205.211c35.071-131.297 181.195-141.485 205.286-39.837-73.508-20.348-31.194 89.995-120.913 121.623-55.057 19.409-96.701-34.587-84.373-81.786z" />
<glyph unicode="&#xe99f;" d="M929.409 503.346c-7.518 157.835-86.084 402.121-452.376 367.894-238.492-22.274-461.759-248.629-280.189-586.507 0 0 30.356-213.363 349.311-186.859 177.727 14.765 394.582 167.823 383.254 405.472z" />
<glyph unicode="&#xe9a0;" d="M583.764 92.848c13.902 0 27.274-8.694 40.194-25.725 7.065-9.324 37.082-51.868 61.878-87.936-30.219-11.261-61.817-19.718-94.473-25.053-37.73 41.85-70.662 87.382-54.736 107.652 16.398 20.86 32.078 31.062 47.137 31.062v0z" />
<glyph unicode="&#xe9a1;" d="M537.164 73.727c0-29.883-28.605-54.122-63.884-54.122s-63.884 24.239-63.884 54.122c0 29.889 28.605 54.129 63.884 54.129s63.884-24.239 63.884-54.129z" />
<glyph unicode="&#xe9a2;" d="M358.414-29.743c1.505 12.473 3.066 25.109 4.765 37.664 4.836 35.639 17.351 73.238 45.976 94.019 0-26.558 44.044-79.694 59.383-79.694 18.196 0 72.656 54.202 72.656 84.018 37.492-8.508 59.571-59.146 59.571-97.317 0-16.511 0.783-34.596 1.912-52.831-30.335-5.668-61.63-8.632-93.622-8.632-52.477 0-103.078 7.976-150.642 22.774v0z" />
<glyph unicode="&#xe9a3;" d="M796.184 313.796l-29.182-108.271c109.752-35.060 129.471 104.060 29.182 108.271z" />
<glyph unicode="&#xe9a4;" d="M796.786 250.298c-29.786-123.369-159.343-205.248-381.47-177.491-158.082 19.755-255.253 113.168-239.619 234.791 0 0-127.593 515.055 346.286 477.75 538.688-42.422 274.803-535.050 274.803-535.050z" />
<glyph unicode="&#xe9a5;" d="M428.962 124.447c-7.351 0-14.661 0.686-21.402 1.912-24.118 4.397-41.503 14.838-47.706 28.65-1.395 3.105 0.007 6.743 3.132 8.129 3.125 1.366 6.781-0.007 8.182-3.118 4.38-9.748 19.182-18.010 38.632-21.548 24.111-4.417 48.015-0.44 58.095 9.634 2.401 2.412 6.331 2.419 8.759 0.027 2.421-2.405 2.435-6.296 0.020-8.708-10.711-10.7-29.35-14.978-47.713-14.978z" />
<glyph unicode="&#xe9a6;" d="M305.031 371.81c-1.898 0-3.763 0.926-4.876 2.618-5.808 8.822-15.647 7.982-18.531 7.529-5.701-0.906-9.37-3.758-9.826-5.47-0.825-3.085-4.004-4.91-7.116-4.104-3.105 0.82-4.956 3.984-4.131 7.069 1.838 6.883 9.383 12.346 19.215 13.925 12.361 1.986 23.615-2.732 30.128-12.613 1.764-2.678 1.006-6.263-1.683-8.009-0.979-0.64-2.086-0.946-3.179-0.946z" />
<glyph unicode="&#xe9a7;" d="M650.498 345.549c-2.146 0-4.219 1.193-5.231 3.238-4.675 9.468-14.527 9.841-17.458 9.748-5.761-0.213-9.745-2.592-10.409-4.244-1.201-2.952-4.581-4.411-7.572-3.198-2.985 1.193-4.427 4.557-3.226 7.522 2.676 6.603 10.832 11.114 20.778 11.48 12.468 0.34 23.099-5.603 28.344-16.217 1.415-2.865 0.221-6.33-2.663-7.736-0.825-0.406-1.704-0.593-2.562-0.593z" />
<glyph unicode="&#xe9a8;" d="M314.742 295.682c0-26.558-19.544-48.046-39.698-48.046-20.134 0-36.506 21.488-36.506 48.046 0 26.531 18.183 58.386 38.095 55.461 28.424-4.164 38.109-28.93 38.109-55.461z" />
<glyph unicode="&#xe9a9;" d="M314.954 290.353c0-26.558-15.654-48.039-34.93-48.039-19.282 0-34.943 21.481-34.943 48.039 0 26.531 15.661 48.026 34.943 48.026 19.276 0 34.93-21.494 34.93-48.026z" />
<glyph unicode="&#xe9aa;" d="M306.475 289.091c0-20.122-11.838-36.412-26.452-36.412-14.594 0-26.445 16.291-26.445 36.412 0 20.108 11.851 36.379 26.445 36.379 14.614 0 26.452-16.271 26.452-36.379z" />
<glyph unicode="&#xe9ab;" d="M333.388 304.434c-8.766-0.4-13.481 3.245-17.472 9.861-9.772 16.217-28.243 27.258-36.479 29.050-24.299 5.29-29.081-5.623-29.933-9.301-0.845-3.771-9.383-3.525-10.765-3.325-4.393 0.773-8.525-2.025-9.323-6.323-0.818-4.324 2.072-8.269 6.385-9.275 13.045-3.065 24.413 5.437 29.309 15.424 11.328 5.943 34.185-12.053 41.757-21.761 5.091-5.050 11.281-12.519 26.519-4.351z" />
<glyph unicode="&#xe9ac;" d="M640.82 212.638c-19.933 18.203-39.457 30.822-63.743 23.426 1.301 9.574 6.211 29.223 30.778 23.846 22.294-4.897 30.597-27.617 32.965-47.273z" />
<glyph unicode="&#xe9ad;" d="M654.496 217.804c-8.639-4.837-13.722-4.224-16.928-2.459-13.776 17.97-19.772 29.776-29.779 33.927-22.944 9.528-30.396-6.063-31.905-9.548-1.509-3.538-6.942-2.798-8.263-2.339-4.185 1.546-8.759-0.493-10.322-4.584-1.59-4.084 0.463-8.682 4.601-10.254 1.194-0.44 2.421-0.74 3.655-0.906 9.859-1.319 19.222 1.659 25.057 11.873 0.235 0.4 0.288-2.852-2.26-5.577 8.384-0.227 14.051 1.239 18.062 3.238 10.952-3.625 16.855-19.489 30.087-26.165 5.050-1.039 12.153-0.040 17.995 12.793z" />
<glyph unicode="&#xe9ae;" d="M712.339 446.561c0 0 116.251-280.951-165.44-374.23 0 0 187.794 7.775 244.703 161.786 9.819 26.585 19.229 50.777 25.815 73.637 40.463 140.419 10.195 216.421 10.195 216.421l-157.613-1.666 42.341-75.949z" />
<glyph unicode="&#xe9af;" d="M212.055 248.364c1.093 56.887-13.789 204.009 87.566 297.961 7.887-65.189 73.528-156.396 101.362-137.001 21.576 15.018-33.293 63.283-19.631 162.166 20.791-80.067 91.275-111.729 127.043-128.932 64.635-31.062 214.977-34.234 311.993-141.038 0 0 224.629 530.919-306.38 545.065-358.848 9.561-512.886-393.785-301.953-598.22z" />
<glyph unicode="&#xe9b0;" d="M79.093 102.315c0 0-3.91-7.776-0.557-15.544 3.353-7.775 30.738-59.965 72.1-57.194 0 0 16.204 2.778 18.444 7.222 0 0 15.647-7.222 15.647-8.888s5.030 11.107 5.030 11.107c0 0-17.887 9.994-21.241 9.441-3.353-0.56-34.648-21.654-68.183 20.541 0 0-16.767 17.21-21.241 33.314z" />
<glyph unicode="&#xe9b1;" glyph-name="common_radiobuton2" d="M512 0v0c247.424 0 448 200.576 448 448s-200.576 448-448 448c-247.424 0-448-200.576-448-448s200.576-448 448-448v0zM512-64v0c-282.77 0-512 229.23-512 512s229.23 512 512 512c282.77 0 512-229.23 512-512s-229.23-512-512-512v0z" />
<glyph unicode="&#xe9b2;" glyph-name="common_male" d="M341.333 106.667v0c94.257 0 170.667 76.41 170.667 170.667s-76.41 170.667-170.667 170.667c-94.257 0-170.667-76.41-170.667-170.667s76.41-170.667 170.667-170.667v0zM341.333 21.333v0c-141.385 0-256 114.615-256 256s114.615 256 256 256c141.385 0 256-114.615 256-256s-114.615-256-256-256v0zM469.333 457.465l271.529 271.529 60.34-60.34-271.529-271.529-60.34 60.34zM426.667 789.333h426.667v-85.333h-426.667v85.333zM853.333 704v-341.333h-85.333v341.333h85.333z" />
<glyph unicode="&#xe9b3;" glyph-name="common_female" d="M512 448v0c94.257 0 170.667 76.41 170.667 170.667s-76.41 170.667-170.667 170.667c-94.257 0-170.667-76.41-170.667-170.667s76.41-170.667 170.667-170.667v0zM512 362.667v0c-141.385 0-256 114.615-256 256s114.615 256 256 256c141.385 0 256-114.615 256-256s-114.615-256-256-256v0zM341.333 277.333h341.333v-85.333h-341.333v85.333zM554.667 448v-426.667h-85.333v426.667h85.333z" />
<glyph unicode="&#xe9b4;" glyph-name="home_add" d="M512 79.36c0 0 100.972 100.921 143.693 148.768 74.083 82.973 129.914 163.37 159.948 235.451 16.016 38.439 24.039 73.098 24.039 103.205 0 158.367-153.748 311.296-327.68 311.296s-327.68-152.929-327.68-311.296c0-30.107 8.023-64.766 24.039-103.205 30.034-72.081 85.865-152.478 159.948-235.451 42.721-47.847 143.693-148.768 143.693-148.768zM102.4 566.784c0 196.608 183.384 393.216 409.6 393.216s409.6-196.608 409.6-393.216c0-262.144-409.6-589.824-409.6-589.824s-409.6 327.68-409.6 589.824zM512 427.52c90.486 0 163.84 73.354 163.84 163.84s-73.354 163.84-163.84 163.84c-90.486 0-163.84-73.354-163.84-163.84s73.354-163.84 163.84-163.84v0zM512 509.44c-45.243 0-81.92 36.677-81.92 81.92s36.677 81.92 81.92 81.92c45.243 0 81.92-36.677 81.92-81.92s-36.677-81.92-81.92-81.92v0z" />
<glyph unicode="&#xe9b5;" glyph-name="common_prompt_cancel" d="M563.045 451.42l111.129-111.129c16.302-16.302 16.381-42.654 0.099-58.935l-6.078-6.078c-16.247-16.247-42.567-16.269-58.935 0.099l-111.129 111.129-108.076-108.076c-17.988-17.988-46.977-18.164-65.027-0.113-17.925 17.925-18.022 46.892 0.113 65.027l108.076 108.076-111.129 111.129c-16.302 16.302-16.381 42.654-0.099 58.935l6.078 6.078c16.247 16.247 42.567 16.269 58.935-0.099l111.129-111.129 108.076 108.076c17.988 17.988 46.977 18.164 65.027 0.113 17.925-17.925 18.022-46.892-0.113-65.027l-108.076-108.076zM501.551-11.755c253.916 0 459.755 205.839 459.755 459.755s-205.839 459.755-459.755 459.755c-253.916 0-459.755-205.839-459.755-459.755s205.839-459.755 459.755-459.755z" />
<glyph unicode="&#xe9b6;" glyph-name="footbar_my_nor" d="M164.571 27.429h18.286c0 171.25 146.955 310.857 329.143 310.857s329.143-139.607 329.143-310.857h36.571c0 191.88-163.736 347.429-365.714 347.429s-365.714-155.549-365.714-347.429h18.286zM512 393.143v0c121.187 0 219.429 98.242 219.429 219.429s-98.242 219.429-219.429 219.429c-121.187 0-219.429-98.242-219.429-219.429s98.242-219.429 219.429-219.429v0zM512 356.571v0c-141.385 0-256 114.615-256 256s114.615 256 256 256c141.385 0 256-114.615 256-256s-114.615-256-256-256v0z" />
<glyph unicode="&#xe9b7;" glyph-name="footbar_home_press" d="M329.483 118.335l69.345 41.555-69.345 51.104v-92.658zM292.571 45.714v237.714l164.571-128-164.571-109.714zM713.941 121.712l177.401 695.169-729.559-313.030c-4.965-3.771-3.926-6.227-0.855-9.476l168.663-125.739 304.774 225.061c32.996 24.359 74.935-15.715 52.1-49.784l-211.117-314.984-9.247 50.21 229.214-160.813c11.45-8.106 18.627 3.385 18.627 3.385zM652.544 558.992l-322.731-235.587-190.69 141.609c-32.481 24.121-28.581 56.647 8.239 72.445l729.559 313.030c37.031 15.889 59.033-2.897 49.143-41.958l-175.3-692.324c-9.891-39.062-44.734-51.737-77.559-28.498l-228.237 161.583 207.576 309.7z" />
<glyph unicode="&#xe9b8;" glyph-name="footbar_my_press" d="M164.678 34.807h17.965c0 168.246 144.377 305.404 323.368 305.404s323.368-137.158 323.368-305.404h35.93c0 188.513-160.863 341.333-359.298 341.333s-359.298-152.82-359.298-341.333h17.965zM506.012 394.105v0c119.061 0 215.579 96.518 215.579 215.579s-96.518 215.579-215.579 215.579c-119.061 0-215.579-96.518-215.579-215.579s96.518-215.579 215.579-215.579v0zM506.012 358.175v0c-138.904 0-251.509 112.604-251.509 251.509s112.604 251.509 251.509 251.509c138.904 0 251.509-112.604 251.509-251.509s-112.604-251.509-251.509-251.509v0z" />
<glyph unicode="&#xe9b9;" d="M306.483 136.91c70.702-40.82 218.346 82.544 329.772 275.541s144.441 382.542 73.739 423.362c-70.702 40.82-218.346-82.544-329.772-275.541s-144.441-382.542-73.739-423.362z" />
<glyph unicode="&#xe9ba;" d="M496.922 747.222c-97.759 88.449-152.768 112.219-208.861 79.834-89.82-51.858-52.937-260.673 69.308-472.407s284.643-348.084 374.463-296.226c79.339 45.806 60.47 212.763-30.859 400.145-5.631 11.554-19.563 16.355-31.117 10.724s-16.355-19.563-10.724-31.117c81.131-166.458 97.541-311.664 49.427-339.443-56.45-32.591-200.89 88.681-310.88 279.189s-142.795 376.234-86.345 408.825c32.010 18.481 70.468 1.863 154.36-74.040 9.531-8.623 24.248-7.888 32.872 1.644s7.888 24.248-1.644 32.872v0z" />
<glyph unicode="&#xe9bb;" d="M452.665 173.551c-64.371-60.234-98.848-73.758-127.729-57.083-56.45 32.591-23.645 218.317 86.345 408.825s254.43 311.781 310.88 279.189c28.359-16.373 35.735-78.48 14.091-168.398-3.008-12.496 4.684-25.065 17.18-28.073s25.065 4.684 28.073 17.18c26.020 108.094 16.373 189.322-36.071 219.6-89.82 51.858-252.218-84.492-374.463-296.226s-159.128-420.55-69.308-472.407c52.131-30.098 105.069-9.333 182.804 63.406 9.385 8.782 9.874 23.509 1.092 32.894s-23.509 9.874-32.894 1.092v0z" />
<glyph unicode="&#xe9bc;" d="M477.091 459.636c0-12.853-10.42-23.273-23.273-23.273s-23.273 10.42-23.273 23.273c0 12.853 10.42 23.273 23.273 23.273s23.273-10.42 23.273-23.273z" />
<glyph unicode="&#xe9bd;" d="M314.366 436.655c12.288-25.471 25.799-51 40.415-76.316 46.483-80.512 92.558-145.325 139.435-194.376 8.88-9.292 23.612-9.626 32.904-0.745s9.626 23.612 0.745 32.904c-43.992 46.031-88.004 107.945-132.775 185.49-14.043 24.323-27.016 48.836-38.802 73.268-5.585 11.577-19.497 16.434-31.073 10.849s-16.434-19.497-10.849-31.073v0z" />
<glyph unicode="&#xe9be;" d="M959.059 407.158c0 103.715-199.281 176.181-443.771 176.181s-443.771-72.466-443.771-176.181c0-59.355 62.927-107.545 165.838-139.139 12.287-3.772 25.306 3.131 29.078 15.418s-3.131 25.306-15.418 29.078c-85.232 26.166-132.952 62.71-132.952 94.643 0 65.183 177.245 129.636 397.225 129.636s397.225-64.453 397.225-129.636c0-26.859-54.549-67.671-133.019-94.904-12.143-4.214-18.57-17.474-14.356-29.617s17.474-18.57 29.617-14.356c96.124 33.36 164.303 84.37 164.303 138.877z" />
<glyph unicode="&#xe9bf;" d="M986.074 448c0-261.824-212.25-474.074-474.074-474.074s-474.074 212.25-474.074 474.074c0 261.824 212.25 474.074 474.074 474.074s474.074-212.25 474.074-474.074z" />
<glyph unicode="&#xe9c0;" d="M506.255 424.802c-12.106 0-23.796 1.388-35.032 3.742l-48.793-28.845 0.653 47.273c-37.403 22.126-61.925 58.697-61.925 100.141 0 67.544 64.961 122.309 145.097 122.309 80.133 0 145.095-54.765 145.095-122.309 0-67.546-64.961-122.311-145.095-122.311zM506.255 685.195c-88.857 0-160.899-61.989-160.899-138.455 0-43.704 23.581-82.61 60.338-107.986v-70.029l70.483 42.060c9.754-1.583 19.79-2.502 30.078-2.502 88.866 0 160.897 61.989 160.897 138.457 0 76.466-72.031 138.455-160.897 138.455z" />
<glyph unicode="&#xe9c1;" d="M448.79 543.913c0-9.363-7.718-16.954-17.239-16.954s-17.239 7.59-17.239 16.954c0 9.363 7.718 16.954 17.239 16.954s17.239-7.59 17.239-16.954z" />
<glyph unicode="&#xe9c2;" d="M529.239 543.913c0-9.363-7.718-16.954-17.239-16.954s-17.239 7.59-17.239 16.954c0 9.363 7.718 16.954 17.239 16.954s17.239-7.59 17.239-16.954z" />
<glyph unicode="&#xe9c3;" d="M609.688 543.913c0-9.363-7.718-16.954-17.239-16.954s-17.239 7.59-17.239 16.954c0 9.363 7.718 16.954 17.239 16.954s17.239-7.59 17.239-16.954z" />
<glyph unicode="&#xe9c4;" d="M587.855 683.601l-36.151 86.238 41.184-6.409z" />
<glyph unicode="&#xe9c5;" d="M621.181 656.939l80.449 22.605-22.985 28.256z" />
<glyph unicode="&#xe9c6;" d="M609.688 690.846l17.239 73.466 34.478-16.954z" />
<glyph unicode="&#xe9c7;" d="M355.328 253.649v-55.808c0-1.536-0.171-3.243-0.171-4.949-4.608-2.56-9.387-5.12-14.165-7.509v74.581c12.288 4.267 22.016 9.045 29.184 14.165l-6.485 9.387c-8.021-5.803-19.115-11.093-33.451-15.701v-80.555c0-4.096-1.365-6.997-3.925-8.533l3.243-10.581c8.875 4.267 17.067 8.533 24.576 12.629-1.195-8.192-3.072-15.36-5.803-21.504-4.949-9.387-13.312-16.896-25.259-22.699l5.803-9.387c12.971 5.973 22.187 14.165 27.819 24.747 5.803 11.605 8.875 26.795 9.216 45.909v55.808h-10.581zM402.091 156.027c7.851 0 11.776 4.949 11.776 14.507v102.059h-37.035v-144.555h10.752v133.803h15.701v-89.088c0-4.096-1.707-6.315-4.949-6.315l-8.192 0.512 3.072-10.923h8.875zM264.363 276.859v-11.264h8.533v-104.789l-10.411-2.048 2.901-11.264c13.653 3.072 26.795 6.485 39.424 10.24v-29.525h11.093v33.109l6.827 2.389v11.947c-2.219-0.853-4.437-1.707-6.827-2.56v92.501h8.192v11.264h-59.733zM284.331 163.537v30.208h20.48v-24.405c-6.827-2.048-13.653-4.096-20.48-5.803v0zM284.331 205.009v24.235h20.48v-24.235h-20.48zM284.331 240.337v25.259h20.48v-25.259h-20.48zM440.149 223.611v-11.776h59.392c-2.901-11.264-6.485-20.651-10.923-28.16-10.752-18.091-28.843-33.621-54.272-46.592l7.68-10.069c27.307 14.507 46.592 31.915 58.197 52.053 4.437 7.851 8.021 17.749 10.923 29.355 12.117-35.157 35.669-62.293 70.827-81.408l7.68 9.899c-33.451 17.408-56.149 42.496-68.096 74.923h62.805v11.776h-69.973c2.048 11.605 3.413 24.576 4.437 39.253h60.587v11.947h-134.827v-11.947h61.781c-0.853-14.507-2.219-27.648-4.267-39.253h-61.952zM626.176 240.337v-11.264h27.989c-11.093-13.653-20.139-22.016-27.136-25.088-0.683-0.341-1.536-0.853-2.56-1.195l2.731-10.581c16.725 0.683 33.109 1.365 49.152 2.219v-18.432h-54.101v-11.435h54.101v-21.333h-67.755v-11.605h148.139v11.605h-67.755v21.333h54.443v11.435h-54.443v19.115c12.629 0.683 25.088 1.536 37.205 2.389 3.755-4.096 7.339-8.363 10.411-12.629l8.875 9.045c-9.557 11.435-21.333 23.040-35.328 34.645l-7.851-7.509c5.12-4.608 10.069-9.216 14.848-13.995-24.064-1.707-48.128-2.901-72.192-3.925 6.656 5.461 14.336 13.995 23.211 25.941h70.997v11.264h-112.981zM681.984 285.563l-13.653-2.389c3.072-4.608 5.973-9.728 8.533-15.189h-65.536v-33.109h12.459v21.504h117.76v-21.504h12.459v33.109h-63.829c-2.731 6.485-5.461 12.459-8.192 17.579v0z" />
<glyph unicode="&#xe9c8;" d="M340.491 779.682c-119.618 0-216.974-101.324-216.974-225.8 0-3.48 0.362-6.6 0.64-9.158l0.202-1.877-0.078-2.242c-0.082-23.629 5.206-47.262 15.695-72.813 63.995-153.426 293.668-331.521 362.548-382.506l4.725-3.594c7.127-5.481 12.452-3.12 16.78 0.237l4.565 3.44c76.090 56.459 261.627 202.646 341.88 340.117 3.686 5.718 5.85 9.999 7.812 13.717l5.724 10.834c4.446 8.957 8.051 17.352 11.015 25.55 9.089 23.793 13.377 44.024 13.377 62.38l-0.243 2.878 0.243 4.636c0.238 2.12 0.558 5.002 0.558 8.359 0 124.517-97.394 225.8-216.974 225.8-57.708 0-114.214-25.031-154.859-68.774l-20.906-22.395-20.906 22.473c-40.769 43.707-97.151 68.738-154.822 68.738zM515.537 21.952c-15.818 0-30.713 4.997-43.129 14.593l-3.925 2.878c-92.11 68.176-313.53 243.915-380.127 403.499l-1.803 4.759c-12.735 30.909-19.46 61.818-19.46 90.406l0.037 2.48c-0.398 3.956-0.76 8.395-0.76 13.315 0 155.984 122.943 282.858 274.121 282.858 63.998 0 126.588-24.030 175.729-66.737 49.099 42.708 111.731 66.737 175.765 66.737 151.1 0 274.084-126.874 274.084-282.858 0-4.6-0.243-8.638-0.562-11.917 0.082-1.237 0.082-2.557 0.082-3.96 0-25.391-5.567-52.299-16.981-82.249-3.926-10.875-9.013-22.473-15.5-35.029l-3.682-6.957c-3.207-6.116-6.327-12.036-10.413-18.275-84.703-145.268-277.445-297.333-356.339-355.912l-3.605-2.718c-12.653-9.757-27.713-14.913-43.532-14.913z" />
<glyph unicode="&#xe9c9;" d="M340.234 779.852c-119.618 0-216.974-101.324-216.974-225.8 0-3.48 0.362-6.6 0.64-9.158l0.202-1.877-0.078-2.242c-0.082-23.629 5.206-47.262 15.695-72.813 63.995-153.426 293.668-331.521 362.548-382.506l4.725-3.594c7.127-5.481 12.452-3.12 16.78 0.237l4.565 3.44c76.090 56.459 261.627 202.646 341.88 340.117 3.686 5.718 5.85 9.999 7.812 13.717l5.724 10.834c4.446 8.957 8.051 17.352 11.015 25.55 9.089 23.793 13.377 44.024 13.377 62.38l-0.243 2.878 0.243 4.636c0.238 2.12 0.558 5.002 0.558 8.359 0 124.517-97.394 225.8-216.974 225.8-57.708 0-114.214-25.031-154.859-68.774l-20.906-22.395-20.906 22.473c-40.769 43.707-97.151 68.738-154.822 68.738z" />
<glyph unicode="&#xe9ca;" d="M461.913 760.889c-1.366-1.025-9.869-7.13-11.908-8.615-6.833-4.976-13.126-9.743-19.71-15.006-18.183-14.538-35.385-30.368-51.625-48.273-58.904-64.945-92.856-143.070-89.227-235.734 4.6-117.48 70.192-247.74 207.481-391.414l34.275 32.752c-129.906 135.948-190.287 255.859-194.385 360.517-3.096 79.080 25.832 145.646 76.972 202.030 14.42 15.899 29.793 30.046 46.113 43.094 5.975 4.777 11.719 9.127 18.015 13.712 1.684 1.226 10.611 7.637 12.444 9.011l-28.444 37.926z" />
<glyph unicode="&#xe9cb;" d="M535.704 722.963c1.833-1.374 10.76-7.785 12.444-9.011 6.296-4.585 12.039-8.935 18.015-13.712 16.321-13.048 31.693-27.195 46.113-43.094 51.139-56.384 80.068-122.95 76.972-202.030-4.098-104.658-64.479-224.569-194.385-360.517l34.275-32.752c137.289 143.674 202.881 273.934 207.481 391.414 3.628 92.665-30.324 170.79-89.227 235.734-16.24 17.905-33.442 33.735-51.625 48.273-6.584 5.264-12.878 10.030-19.71 15.006-2.039 1.485-10.541 7.59-11.908 8.615l-28.444-37.926z" />
<glyph unicode="&#xe9cc;" d="M199.111 760.889h625.778v-625.778h-625.778v625.778z" />
<glyph unicode="&#xe9cd;" d="M938.667 448c0-235.641-191.025-426.667-426.667-426.667s-426.667 191.025-426.667 426.667c0 235.641 191.025 426.667 426.667 426.667s426.667-191.025 426.667-426.667z" />
<glyph unicode="&#xe9ce;" d="M906.619 418.020v0c-0.737-7.276-1.551-14.527-2.608-21.728 1.057 7.202 1.981 14.43 2.608 21.728zM811.795 190.179l-123.109 123.109c60.496 51.257 135.577 80.188 215.304 82.956-9.933-76.33-41.61-147.421-92.195-206.065v0zM563.963 56.037v0c-7.298-1.068-14.616-1.904-21.961-2.608 7.371 0.627 14.663 1.54 21.961 2.608zM252.983 149.29l257.897 257.876 93.904-93.898c-64.762-74.784-97.852-167.439-99.973-260.65 2.402-0.042 4.778-0.364 7.202-0.364-96.279-0.005-187.088 34.492-259.030 97.042v-0.005zM120.312 499.774v0c-1.070-7.203-1.982-14.452-2.608-21.744 0.727 7.271 1.539 14.541 2.608 21.744zM116.252 448.035c0-2.609 0.324-5.149 0.366-7.737 96.835 2.101 187.986 37.404 260.649 100.481l91.639-91.638-257.786-257.76c6.768-7.922 13.6-15.77 21.062-23.205-74.764 74.737-115.929 174.133-115.929 279.859v0zM212.209 705.842l123.083-123.089c-60.492-51.257-135.556-80.187-215.277-82.954 9.927 76.308 41.604 147.399 92.193 206.043v0zM460.042 839.964c-2.773-76.885-30.248-153.029-82.796-215.209l-123.067 123.062c-7.478-6.44-14.96-12.906-22.003-19.971 62.322 62.338 141.879 100.899 227.866 112.118v0zM481.971 842.291v0c-7.36-0.616-14.636-1.523-21.908-2.608 7.272 1.086 14.569 1.892 21.908 2.608zM510.88 491.116l-91.687 91.665c64.767 74.758 97.852 167.418 100.001 260.623 92.517-1.635 179.721-34.842 249.447-94.523l-257.76-257.765zM646.759 271.292l123.062-123.066c-58.576-50.543-129.597-82.22-205.858-92.189 2.768 76.905 30.243 153.071 82.796 215.25v0.005zM907.752 448.035c0 2.587-0.322 5.122-0.37 7.711-96.836-2.101-187.988-37.404-260.67-100.481l-93.877 93.877 257.903 257.876c62.544-71.942 97.015-162.724 97.015-258.982v0zM833.798 769.82c-85.933 85.982-200.222 133.291-321.785 133.291-121.585 0-235.872-47.309-321.812-133.291-85.955-85.96-133.311-200.222-133.311-321.785 0-121.585 47.357-235.872 133.311-321.833 85.94-85.96 200.227-133.313 321.812-133.313 121.563 0 235.852 47.352 321.785 133.313 85.982 85.955 133.313 200.248 133.313 321.833 0 121.559-47.331 235.825-133.313 321.785v0z" />
<glyph unicode="&#xe9cf;" d="M512-64c282.77 0 512 229.23 512 512s-229.23 512-512 512c-282.77 0-512-229.23-512-512s229.23-512 512-512z" />
<glyph unicode="&#xe9d0;" d="M276.413 683.513c-55.584-55.568-88.891-127.6-95.991-204.229l-1.154-12.457 12.428-1.439c77.979-9.026 158.38-49.44 223.076-114.129 64.729-64.778 105.189-145.213 114.19-223.073l1.436-12.421 12.451 1.144c76.559 7.037 148.494 40.319 204.217 95.953 55.582 55.585 88.882 127.615 95.948 204.18l1.149 12.453-12.422 1.439c-77.882 9.021-158.284 49.461-223.060 114.197-64.669 64.674-105.099 145.084-114.192 223.119l-1.448 12.424-12.454-1.161c-76.608-7.139-148.631-40.446-204.175-96.003l0.002 0.002zM294.515 665.411c51.284 51.296 117.729 82.023 188.447 88.613l-13.902 11.263c9.777-83.903 52.864-169.598 121.52-238.26 68.764-68.721 154.453-111.821 238.214-121.522l-11.273 13.891c-6.522-70.664-37.239-137.109-88.551-188.424-51.458-51.375-117.811-82.075-188.465-88.569l13.887-11.276c-9.681 83.743-52.801 169.465-121.516 238.232-68.687 68.681-154.379 111.754-238.237 121.46l11.274-13.896c6.553 70.731 37.279 137.18 88.6 188.486l0.002 0.002z" />
<glyph unicode="&#xe9d1;" d="M747.112 683.575c-60.669 60.677-140.981 94.613-225.319 97.219l-15.011 0.464 1.921-14.895c9.498-73.64 48.63-149.604 110.136-211.097 61.443-61.508 137.383-100.616 211-110.080l14.871-1.912-0.444 14.987c-2.497 84.208-36.431 164.5-97.147 225.309l-0.006 0.006zM729.003 665.481c56.061-56.147 87.368-130.223 89.674-207.979l14.426 13.075c-67.821 8.719-138.602 45.171-196.158 102.787-57.622 57.61-94.101 128.424-102.852 196.274l-13.090-14.431c77.899-2.407 152.001-33.718 208.006-89.732l-0.006 0.006z" />
<glyph unicode="&#xe9d2;" d="M276.411 212.865c60.753-60.768 141.064-94.756 225.257-97.22l14.998-0.439-1.93 14.88c-9.543 73.565-48.676 149.546-110.109 210.992-61.48 61.459-137.391 100.575-210.977 110.141l-14.893 1.936 0.449-15.012c2.521-84.246 36.48-164.543 97.205-225.278v0zM294.514 230.965c-56.063 56.072-87.393 130.151-89.72 207.943l-14.444-13.076c67.811-8.815 138.582-45.282 196.176-102.857 57.545-57.557 94.029-128.395 102.823-196.182l13.068 14.441c-77.728 2.275-151.813 33.628-207.902 89.731v0z" />
<glyph unicode="&#xe9d3;" d="M1003.158 450.994c0-273.648-221.836-495.484-495.484-495.484s-495.484 221.836-495.484 495.484c0 273.648 221.836 495.484 495.484 495.484s495.484-221.836 495.484-495.484z" />
<glyph unicode="&#xe9d4;" d="M602.058 661.245c18.686-7.916 36.622-18.422 53.124-31.519 6.78-5.329 13.337-11.099 19.513-17.313 14.618-14.578 26.752-30.634 36.618-47.655 2.487-4.288 4.823-8.656 7.009-13.021l-116.265-115.945c1.207 7.027 0 225.453 0 225.453z" />
<glyph unicode="&#xe9d5;" d="M485.948 677.672c8.587 1.038 17.255 1.554 26.071 1.554 20.644 0 40.687-2.811 59.749-7.915 4.75-1.334 9.496-2.739 14.168-4.292v-163.892c-4.146 5.697-159.965 159.451-159.965 159.451 18.911 7.471 38.955 12.729 59.977 15.094z" />
<glyph unicode="&#xe9d6;" d="M330.579 591.544c5.35 6.735 11.078 13.246 17.406 19.459 14.618 14.578 30.743 26.638 47.847 36.48 4.294 2.442 8.664 4.736 13.035 6.954l116.261-115.945c-7.006 1.109-226.197-0.072-226.197-0.072 7.914 18.79 18.462 36.624 31.648 53.124z" />
<glyph unicode="&#xe9d7;" d="M282.357 422.399c-0.979 8.509-1.582 17.241-1.582 26.046 0 20.568 2.785 40.547 7.911 59.49 1.28 4.733 2.711 9.545 4.293 14.13h164.487c-5.802-4.14-159.888-159.451-159.888-159.451-7.686 18.866-12.885 38.846-15.22 59.786z" />
<glyph unicode="&#xe9d8;" d="M368.029 267.68c-6.784 5.329-13.337 11.099-19.518 17.317-14.617 14.575-26.747 30.63-36.618 47.723-2.487 4.292-4.823 8.584-7.008 13.024l116.264 115.945c-1.129-7.031 0.073-225.456 0.073-225.456-18.837 7.844-36.692 18.35-53.192 31.447z" />
<glyph unicode="&#xe9d9;" d="M537.412 218.624c-8.517-0.961-17.256-1.554-26.071-1.554-20.647 0-40.691 2.812-59.679 7.916-4.746 1.257-9.493 2.739-14.165 4.292v163.968c4.146-5.773 159.964-159.455 159.964-159.455-18.911-7.548-39.028-12.801-60.050-15.167z" />
<glyph unicode="&#xe9da;" d="M691.725 303.863c-5.349-6.734-11.151-13.245-17.332-19.459-14.617-14.577-30.743-26.714-47.847-36.479-4.293-2.443-8.664-4.809-13.109-6.955l-116.264 115.874c7.008-1.114 226.196 0 226.196 0-7.987-18.647-18.536-36.48-31.644-52.98z" />
<glyph unicode="&#xe9db;" d="M734.672 388.214c-1.28-4.737-2.712-9.47-4.294-14.134h-164.486c5.802 4.144 159.891 159.456 159.891 159.456 7.608-18.795 12.806-38.846 15.22-59.787 0.979-8.508 1.581-17.241 1.581-26.045 0-20.568-2.789-40.476-7.913-59.49z" />
<glyph unicode="&#xe9dc;" d="M512 325.943c83.316 0 150.857 67.541 150.857 150.857s-67.541 150.857-150.857 150.857c-83.316 0-150.857-67.541-150.857-150.857s67.541-150.857 150.857-150.857v0zM512 344.229c-73.217 0-132.571 59.354-132.571 132.571s59.354 132.571 132.571 132.571c73.217 0 132.571-59.354 132.571-132.571s-59.354-132.571-132.571-132.571v0z" />
<glyph unicode="&#xe9dd;" d="M580.446 538.514c-4.262 0-8.068-1.873-10.773-4.828l-0.019 0.022-76.599-78.52-37.892 38.831-0.022-0.029c-2.693 2.884-6.448 4.696-10.659 4.696-8.164 0-14.767-6.786-14.767-15.137 0-4.294 1.766-8.167 4.573-10.915v-0.010l47.548-48.751c0.557-0.658 1.155-1.287 1.818-1.853l0.28-0.275c0.009 0.010 0.019 0.010 0.029 0.019 2.518-2.048 5.665-3.338 9.143-3.338 4.828 0 9.071 2.401 11.763 6.076l85.669 87.808-0.051 0.051c2.89 2.759 4.717 6.673 4.717 11.038 0.010 8.342-6.604 15.115-14.757 15.115z" />
<glyph unicode="&#xe9de;" d="M150.4 480l-54.4-28.8 60.8-4.8z" />
<glyph unicode="&#xe9df;" d="M779.453 578.526l42.947-22.737-48-3.789z" />
<glyph unicode="&#xe9e0;" d="M848 398.4c0-6.186-5.014-11.2-11.2-11.2s-11.2 5.014-11.2 11.2c0 6.186 5.014 11.2 11.2 11.2s11.2-5.014 11.2-11.2z" />
<glyph unicode="&#xe9e1;" d="M700.8 667.2c0-4.418-3.582-8-8-8s-8 3.582-8 8c0 4.418 3.582 8 8 8s8-3.582 8-8z" />
<glyph unicode="&#xe9e2;" d="M240 360c0-4.418-3.582-8-8-8s-8 3.582-8 8c0 4.418 3.582 8 8 8s8-3.582 8-8z" />
<glyph unicode="&#xe9e3;" d="M648.778 316.516l83.232 74.943c1.313 1.183 3.337 1.077 4.519-0.237s1.077-3.337-0.237-4.519l-83.232-74.943c-1.313-1.183-3.337-1.077-4.519 0.237s-1.077 3.337 0.237 4.519z" />
<glyph unicode="&#xe9e4;" d="M783.178 623.716l83.232 74.943c1.313 1.183 3.337 1.077 4.519-0.237s1.077-3.337-0.237-4.519l-83.232-74.943c-1.313-1.183-3.337-1.077-4.519 0.237s-1.077 3.337 0.237 4.519z" />
<glyph unicode="&#xe9e5;" d="M149.578 351.716l83.232 74.943c1.313 1.183 3.337 1.077 4.519-0.237s1.077-3.337-0.237-4.519l-83.232-74.943c-1.313-1.183-3.337-1.077-4.519 0.237s-1.077 3.337 0.237 4.519z" />
<glyph unicode="&#xe9e6;" d="M268.8 630.4c-1.595-1.602-11.2-20.8-32.13-22.8 12.93-14 12.93-20.4 12.93-41.2 0 0 7.347 22.612 36.636 25.095 0 0-17.229 11.612-17.436 38.905z" />
<glyph unicode="&#xe9e7;" d="M806.4 252.8c0 0-6.097-11.296-19.096-12.479 3.096-3.521 9.496-8.321 9.496-22.721 0 0 4.8 12.8 19.2 12.8 0 0-9.6 6.4-9.6 22.4z" />
<glyph unicode="&#xe9e8;" d="M1017.679 448c0-279.279-226.4-505.679-505.679-505.679s-505.679 226.4-505.679 505.679c0 279.279 226.4 505.679 505.679 505.679s505.679-226.4 505.679-505.679z" />
<glyph unicode="&#xe9e9;" d="M271.802 460.642h480.395c6.982 0 12.642-5.66 12.642-12.642s-5.66-12.642-12.642-12.642h-480.395c-6.982 0-12.642 5.66-12.642 12.642s5.66 12.642 12.642 12.642z" />
<glyph unicode="&#xe9ea;" d="M499.358 207.802v480.395c0 6.982 5.66 12.642 12.642 12.642s12.642-5.66 12.642-12.642v-480.395c0-6.982-5.66-12.642-12.642-12.642s-12.642 5.66-12.642 12.642z" />
<glyph unicode="&#xe9eb;" glyph-name="topbar_share" d="M650.307 680.727l1.329-46.545h139.681c25.682 0 46.501-20.876 46.501-46.661v-465.224c0-25.77-20.943-46.661-46.342-46.661h-558.953c-25.594 0-46.342 20.876-46.342 46.661v465.224c0 25.77 20.636 46.661 46.501 46.661h139.681v46.545h-160.649c-43.318 0-72.078-32.458-72.078-69.818v-514.199c0-37.416 34.909-67.619 72.078-67.619h600.629c37.111 0 72.020 30.203 72.020 67.619v507.168c0 37.305-28.76 76.85-72.020 76.85h-162.037zM488.727 791.080v-482.717h46.545v486.572l73.68-71.814 31.047 39.060-128 116.364-128-110.351 28.174-40.343 76.553 63.229z" />
<glyph unicode="&#xe9ec;" d="M512-64c282.77 0 512 229.23 512 512s-229.23 512-512 512c-282.77 0-512-229.23-512-512s229.23-512 512-512v0zM512-28.69c-263.268 0-476.69 213.421-476.69 476.69s213.421 476.69 476.69 476.69c263.268 0 476.69-213.421 476.69-476.69s-213.421-476.69-476.69-476.69v0z" />
<glyph unicode="&#xe9ed;" d="M329.143 667.429h73.143v-146.286h-73.143v146.286z" />
<glyph unicode="&#xe9ee;" d="M773.163 199.068l-523.407-8.695-0.564 74.118 524.915 6.745z" />
<glyph unicode="&#xe9ef;" d="M621.714 667.429h73.143v-146.286h-73.143v146.286z" />
<glyph unicode="&#xe9f0;" d="M512-64c282.77 0 512 229.23 512 512s-229.23 512-512 512c-282.77 0-512-229.23-512-512s229.23-512 512-512v0zM512-28.69c-263.268 0-476.69 213.421-476.69 476.69s213.421 476.69 476.69 476.69c263.268 0 476.69-213.421 476.69-476.69s-213.421-476.69-476.69-476.69v0z" />
<glyph unicode="&#xe9f1;" d="M329.143 667.429h73.143v-146.286h-73.143v146.286z" />
<glyph unicode="&#xe9f2;" d="M621.714 667.429h73.143v-146.286h-73.143v146.286z" />
<glyph unicode="&#xe9f3;" d="M251.821 243.774c50.996-62.027 133.127-101.621 251.669-108.644 128.177-7.593 214.121 38.22 263.662 119.048 15.964 26.046 26.859 53.828 33.664 81.601 4.108 16.766 5.957 29.987 6.444 37.963l-36.503 2.229c-0.361-5.914-1.912-17.001-5.462-31.489-5.958-24.316-15.49-48.623-29.324-71.193-42.552-69.426-115.741-108.44-230.319-101.652-108.649 6.436-181.244 41.434-225.582 95.362-17.016 20.697-28.656 42.848-35.897 64.947-4.27 13.033-6.11 22.904-6.519 27.984l-36.454-2.931c2.346-29.179 16.146-71.294 50.62-113.225z" />
<glyph unicode="&#xe9f4;" d="M512-64c282.77 0 512 229.23 512 512s-229.23 512-512 512c-282.77 0-512-229.23-512-512s229.23-512 512-512v0zM512-28.69c-263.268 0-476.69 213.421-476.69 476.69s213.421 476.69 476.69 476.69c263.268 0 476.69-213.421 476.69-476.69s-213.421-476.69-476.69-476.69v0z" />
<glyph unicode="&#xe9f5;" d="M329.143 630.857h73.143v-146.286h-73.143v146.286z" />
<glyph unicode="&#xe9f6;" d="M774.107 338.286l-4.875-73.143-508.357-110.366-4.875 73.143z" />
<glyph unicode="&#xe9f7;" d="M621.714 630.857h73.143v-146.286h-73.143v146.286z" />
<glyph unicode="&#xe9f8;" d="M1008.679 454.4c0-270.773-219.505-490.279-490.279-490.279s-490.279 219.505-490.279 490.279c0 270.773 219.505 490.279 490.279 490.279s490.279-219.505 490.279-490.279z" />
<glyph unicode="&#xe9f9;" d="M518.4 349.338c-42.836 0-77.565 35.28-77.565 78.796s34.728 78.794 77.565 78.794c42.836 0 77.564-35.277 77.564-78.794s-34.728-78.796-77.564-78.796v0zM518.4 533.196c-57.116 0-103.42-47.039-103.42-105.061s46.304-105.059 103.42-105.059c57.115 0 103.42 47.037 103.42 105.059s-46.305 105.061-103.42 105.061v0zM699.381 323.076c0-14.508-11.573-26.268-25.855-26.268h-310.253c-14.279 0-25.855 11.76-25.855 26.268v210.12c0 14.505 11.573 26.265 25.855 26.265h51.707l12.929 26.263c9.139 15.279 11.576 26.265 25.855 26.265h129.272c14.279 0 16.714-10.986 25.855-26.265l12.929-26.263h51.709c14.279 0 25.855-11.76 25.855-26.265v-210.12h-0.003zM673.529 585.724h-38.781l-12.929 26.265c-7.617 15.283-11.576 26.265-25.855 26.265h-155.129c-14.279 0-18.997-12.531-25.855-26.265l-12.926-26.265h-38.781c-28.557 0-51.709-23.517-51.709-52.528v-210.12c0-29.014 23.152-52.53 51.709-52.53h310.256c28.558 0 51.707 23.516 51.707 52.53v210.12c0 29.008-23.15 52.528-51.707 52.528v0z" />
<glyph unicode="&#xe9fa;" d="M1002.279 454.4c0-270.773-219.505-490.279-490.279-490.279s-490.279 219.505-490.279 490.279c0 270.773 219.505 490.279 490.279 490.279s490.279-219.505 490.279-490.279z" />
<glyph unicode="&#xe9fb;" d="M512 349.338c-42.836 0-77.565 35.28-77.565 78.796s34.728 78.794 77.565 78.794c42.836 0 77.564-35.277 77.564-78.794s-34.728-78.796-77.564-78.796v0zM512 533.196c-57.116 0-103.42-47.039-103.42-105.061s46.304-105.059 103.42-105.059c57.115 0 103.42 47.037 103.42 105.059s-46.305 105.061-103.42 105.061v0zM692.981 323.076c0-14.508-11.573-26.268-25.855-26.268h-310.253c-14.279 0-25.855 11.76-25.855 26.268v210.12c0 14.505 11.573 26.265 25.855 26.265h51.707l12.929 26.263c9.139 15.279 11.576 26.265 25.855 26.265h129.272c14.279 0 16.714-10.986 25.855-26.265l12.929-26.263h51.709c14.279 0 25.855-11.76 25.855-26.265v-210.12h-0.003zM667.129 585.724h-38.781l-12.929 26.265c-7.617 15.283-11.576 26.265-25.855 26.265h-155.129c-14.279 0-18.997-12.531-25.855-26.265l-12.926-26.265h-38.781c-28.557 0-51.709-23.517-51.709-52.528v-210.12c0-29.014 23.152-52.53 51.709-52.53h310.256c28.558 0 51.707 23.516 51.707 52.53v210.12c0 29.008-23.15 52.528-51.707 52.528v0z" />
<glyph unicode="&#xe9fc;" d="M506.588 252.947c91.893 0 166.387 74.41 166.387 166.199s-74.494 166.199-166.387 166.199c-91.893 0-166.387-74.41-166.387-166.199s74.494-166.199 166.387-166.199v0zM506.588 273.092c-80.754 0-146.218 65.39-146.218 146.053s65.464 146.053 146.218 146.053c80.754 0 146.218-65.39 146.218-146.053s-65.464-146.053-146.218-146.053v0z" />
<glyph unicode="&#xe9fd;" d="M582.080 487.136c-4.701 0-8.899-2.064-11.882-5.319l-0.021 0.025-84.484-86.505-41.793 42.78-0.024-0.032c-2.97 3.177-7.112 5.173-11.756 5.173-9.004 0-16.287-7.477-16.287-16.677 0-4.731 1.948-8.997 5.044-12.025v-0.011l52.442-53.708c0.615-0.725 1.274-1.418 2.005-2.042l0.309-0.303c0.010 0.011 0.021 0.011 0.031 0.021 2.777-2.256 6.248-3.677 10.084-3.677 5.325 0 10.004 2.645 12.974 6.694l94.488 96.738-0.056 0.057c3.187 3.039 5.202 7.351 5.202 12.161 0.011 9.19-7.283 16.652-16.277 16.652z" />
<glyph unicode="&#xe9fe;" d="M335.63 662.413c0 0-5.887-26.145-28.418-34.873 26.067-18.144 27.188-33.94 29.169-40.353 0 0 4.419 28.813 25.219 40.013 0 0-17.6 3.2-25.97 35.213z" />
<glyph unicode="&#xe9ff;" d="M275.026 569.672c0 0-1.966-13.903-15.826-19.272 11.2-6.4 14.538-17.605 16.212-22.088 0 0 2.988 14.088 15.788 22.088 0 0-9.6 3.2-16.174 19.272z" />
<glyph unicode="&#xea00;" d="M704 310.4c0 0-6.376-21.736-25.6-28.8 11.2-6.4 20.338-10.268 25.6-32 0 0 3.549 22.394 25.6 32 0 0-17.6 3.2-25.6 28.8z" />
<glyph unicode="&#xea01;" d="M1024 448c0-282.77-229.23-512-512-512s-512 229.23-512 512c0 282.77 229.23 512 512 512s512-229.23 512-512z" />
<glyph unicode="&#xea02;" d="M277.333 725.333h469.333c15.709 0 28.444-12.735 28.444-28.444v-497.778c0-15.709-12.735-28.444-28.444-28.444h-469.333c-15.709 0-28.444 12.735-28.444 28.444v497.778c0 15.709 12.735 28.444 28.444 28.444z" />
<glyph unicode="&#xea03;" d="M298.667 704h426.667c15.709 0 28.444-12.735 28.444-28.444v-455.111c0-15.709-12.735-28.444-28.444-28.444h-426.667c-15.709 0-28.444 12.735-28.444 28.444v455.111c0 15.709 12.735 28.444 28.444 28.444z" />
<glyph unicode="&#xea04;" d="M327.111 654.222h369.778c7.855 0 14.222-6.368 14.222-14.222v-227.556c0-7.855-6.368-14.222-14.222-14.222h-369.778c-7.855 0-14.222 6.368-14.222 14.222v227.556c0 7.855 6.368 14.222 14.222 14.222z" />
<glyph unicode="&#xea05;" d="M348.444 632.889h327.111c7.855 0 14.222-6.368 14.222-14.222v-184.889c0-7.855-6.368-14.222-14.222-14.222h-327.111c-7.855 0-14.222 6.368-14.222 14.222v184.889c0 7.855 6.368 14.222 14.222 14.222z" />
<glyph unicode="&#xea06;" d="M319.813 327.111h377.263c5.788 0 10.48 4.776 10.48 10.667s-4.692 10.667-10.48 10.667h-377.263c-5.788 0-10.48-4.776-10.48-10.667s4.692-10.667 10.48-10.667v0z" />
<glyph unicode="&#xea07;" d="M319.656 248.889h192.688c5.701 0 10.323 4.776 10.323 10.667s-4.622 10.667-10.323 10.667h-192.688c-5.701 0-10.323-4.776-10.323-10.667s4.622-10.667 10.323-10.667v0z" />
<glyph unicode="&#xea08;" d="M1024 448c0-282.77-229.23-512-512-512s-512 229.23-512 512c0 282.77 229.23 512 512 512s512-229.23 512-512z" />
<glyph unicode="&#xea09;" d="M718.222 572.444c0-56.947-46.164-103.111-103.111-103.111s-103.111 46.164-103.111 103.111c0 56.947 46.164 103.111 103.111 103.111s103.111-46.164 103.111-103.111z" />
<glyph unicode="&#xea0a;" d="M796.444 277.333c0 109.966-89.145 199.111-199.111 199.111s-199.111-89.145-199.111-199.111h398.222z" />
<glyph unicode="&#xea0b;" d="M632.889 547.556c0-82.475-66.859-149.333-149.333-149.333s-149.333 66.859-149.333 149.333c0 82.475 66.859 149.333 149.333 149.333s149.333-66.859 149.333-149.333z" />
<glyph unicode="&#xea0c;" d="M704 213.333c0 133.53-108.248 241.778-241.778 241.778s-241.778-108.248-241.778-241.778h483.556z" />
<glyph unicode="&#xea0d;" d="M597.333 547.556c0-82.475-66.859-149.333-149.333-149.333s-149.333 66.859-149.333 149.333c0 82.475 66.859 149.333 149.333 149.333s149.333-66.859 149.333-149.333z" />
<glyph unicode="&#xea0e;" d="M576 547.556c0-70.692-57.308-128-128-128s-128 57.308-128 128c0 70.692 57.308 128 128 128s128-57.308 128-128z" />
<glyph unicode="&#xea0f;" d="M668.444 199.111c0 117.821-95.513 213.333-213.333 213.333s-213.333-95.513-213.333-213.333h426.667z" />
<glyph unicode="&#xea10;" d="M647.111 220.444c0 94.257-85.961 170.667-192 170.667s-192-76.41-192-170.667h384z" />
<glyph unicode="&#xea11;" d="M497.778 533.333c0-31.419-22.286-56.889-49.778-56.889s-49.778 25.47-49.778 56.889h99.556z" />
<glyph unicode="&#xea12;" d="M483.556 519.111c0-15.709-15.919-28.444-35.556-28.444s-35.556 12.735-35.556 28.444h71.111z" />
<glyph unicode="&#xea13;" d="M807.111 284.444v0c0-5.891-4.776-10.667-10.667-10.667s-10.667 4.776-10.667 10.667c0 92.278-75.316 167.111-168.258 167.111-5.891 0-10.667 4.776-10.667 10.667s4.776 10.667 10.667 10.667c104.693 0 189.591-84.354 189.591-188.444zM611.556 451.556c65.166 0 118.022 52.517 118.022 117.333s-52.855 117.333-118.022 117.333l-1.508-0.107c-1.413-0.202-3.778-0.588-6.787-1.161-5.016-0.955-10.042-2.104-14.793-3.462-7.554-2.158-13.742-4.634-18.384-7.728-4.902-3.268-6.226-9.89-2.958-14.792s9.89-6.226 14.792-2.958c2.411 1.607 6.8 3.363 12.411 4.966 4.068 1.162 8.491 2.173 12.924 3.018 2.66 0.507 4.706 0.841 5.812 0.999l-1.508-0.107c53.415 0 96.688-42.996 96.688-96s-43.273-96-96.688-96c-5.891 0-10.667-4.776-10.667-10.667s4.776-10.667 10.667-10.667v0z" />
<glyph unicode="&#xea14;" d="M235.93 960h552.141c130.3 0 235.93-105.629 235.93-235.93v-552.141c0-130.3-105.629-235.93-235.93-235.93h-552.141c-130.3 0-235.93 105.629-235.93 235.93v552.141c0 130.3 105.629 235.93 235.93 235.93z" />
<glyph unicode="&#xea15;" d="M169.094 178.345v-19.084h58.091v-27.263h-44.669v-87.661h19.923v10.276h71.513v-10.066h19.713v87.451h-46.137v27.263h58.511v19.084h-58.511v30.618c18.874 2.726 35.442 6.711 49.912 11.744l-9.857 16.777c-31.038-10.066-69.206-15.099-114.714-15.099l6.291-17.826c16.987 0 32.925 0.839 48.025 2.097v-28.312h-58.091zM202.439 73.278v40.056h71.513v-40.056h-71.513zM133.652 235.807l-13.631-12.793c15.309-10.066 27.263-19.504 35.652-28.102l13.631 13.422c-9.857 9.227-21.81 18.455-35.652 27.473v0zM128.829 185.895l-14.051-13.631c15.519-11.115 27.682-21.391 36.281-31.038l13.841 13.841c-9.647 10.276-21.81 20.552-36.071 30.828v0zM149.171 129.481c-8.598-25.166-18.874-49.703-30.828-73.82l19.923-8.808c10.486 23.488 20.342 48.654 29.15 75.497l-18.245 7.13zM332.882 224.902v-19.084h78.014v19.084h-78.014zM325.122 168.279v-19.294h26.844c-9.647-35.232-17.197-56.833-22.859-65.012-0.839-0.629-2.097-1.258-4.194-1.678l4.823-18.874c25.585 4.614 49.283 10.695 71.303 18.245l5.453-13.422 17.197 8.808c-8.808 21.181-18.036 40.685-27.682 58.301l-16.777-8.179c4.823-9.018 9.647-18.665 14.47-28.941-14.051-5.243-28.102-9.437-41.943-12.373 5.453 13.422 11.954 34.393 19.504 63.124h47.186v19.294h-93.323zM446.757 237.275v-37.329h-24.327v-19.084h24.327v-4.404c-0.419-54.945-13.422-94.791-39.007-119.538l15.729-14.051c28.312 28.312 42.782 72.771 43.201 133.589v4.404h26.005c-0.419-58.301-1.258-92.484-2.517-102.76-1.468-9.647-6.501-14.47-15.309-14.47-5.453 0-12.163 0.419-19.713 1.049l4.614-17.616c8.598-0.419 14.68-0.839 18.036-0.839 18.665 0 29.15 7.759 31.457 23.278 1.887 16.358 2.936 59.979 2.936 130.443h-45.508v37.329h-19.923zM720.435 228.886h-171.128v-78.643c-0.419-39.217-6.291-69.835-17.197-91.855l15.519-13.841c13.841 26.424 21.181 61.656 22.020 105.696v59.14h150.785v19.504zM713.305 166.601h-62.495l0.629 13.631v20.762h-19.923v-20.762l-0.629-13.631h-48.864v-17.826h47.186c-2.307-16.358-6.082-30.409-11.534-42.572-8.389-17.616-24.537-32.296-48.025-44.040l11.115-17.406c24.327 10.905 41.733 26.844 52.639 47.396 7.969 15.309 13.212 34.184 15.729 56.623h44.040c-0.419-37.749-2.097-61.027-4.614-69.835-2.307-9.018-8.389-13.631-18.036-14.051-6.711 0.419-15.099 0.839-25.376 1.258l5.243-18.665c9.647-0.419 18.036-0.839 24.746-0.839 13.841 0 23.698 5.662 29.36 16.987 5.453 11.325 8.389 45.718 8.808 102.97v0zM830.955 230.984v-63.544h92.065v63.544h-92.065zM903.726 185.266h-53.268v28.102h53.268v-28.102zM824.454 151.292v-18.036h41.314v-21.81h-36.49v-17.826h36.49v-23.278h-49.283v-18.874h118.489v18.874h-49.073v23.278h37.539v17.826h-37.539v21.81h44.040v18.036h-105.487zM746.021 182.12v-19.084h26.634c-6.711-21.181-17.197-40.056-31.877-56.833l8.808-22.23c10.276 14.68 18.665 31.038 25.376 48.654v-87.451h19.084v90.178c5.033-7.13 10.695-16.148 17.406-27.053l11.115 16.777c-9.647 10.486-19.084 20.342-28.521 29.15v8.808h24.117v19.084h-24.117v28.521c10.066 1.887 19.504 3.985 28.521 6.501l-6.921 18.874c-20.342-6.291-43.411-10.695-69.416-12.793l3.985-18.665c8.389 0.839 16.777 1.887 24.746 2.936v-25.376h-28.941z" />
<glyph unicode="&#xea16;" d="M506.608 439.65c-84.22 0-153.187 68.694-153.187 153.127 0 84.438 68.66 153.129 153.096 153.129s153.096-68.907 153.096-153.126c0 0 0.125-38.281 38.405-38.281s38.158 38.281 38.158 38.281c0 61.252-23.89 119.032-67.275 162.416-43.382 43.384-101.063 67.274-162.416 67.274-61.351 0-119.032-23.893-162.416-67.274-43.384-43.384-67.275-101.065-67.275-162.418 0-61.351 23.953-119.032 67.337-162.413 43.382-43.384 101.226-67.277 162.476-67.277 0 0 38.283 0.002 38.283 38.282 0 38.283-38.283 38.281-38.283 38.281v0zM544.486 618.018c17.391-17.391 17.391-45.848 0-63.239s-45.846-17.391-63.237 0c-17.393 17.389-17.393 45.848 0 63.239 17.391 17.389 45.847 17.389 63.237 0v0zM725.38 426.235c14.395-14.395 14.398-37.956 0-52.352s-37.956-14.395-52.353 0l-104.701 104.703c-14.395 14.397-14.395 37.956 0 52.353 14.395 14.395 37.956 14.395 52.35 0l104.704-104.704z" />
<glyph unicode="&#xea17;" d="M235.93 960h552.141c130.3 0 235.93-105.629 235.93-235.93v-552.141c0-130.3-105.629-235.93-235.93-235.93h-552.141c-130.3 0-235.93 105.629-235.93 235.93v552.141c0 130.3 105.629 235.93 235.93 235.93z" />
<glyph unicode="&#xea18;" d="M376.799 448.628v-110.197c0-4.664 0.917-9.124 2.59-13.146 1.67-4.019 4.062-7.704 7.013-10.745 5.93-6.082 14.122-9.9 23.165-9.9 4.522 0 8.847 0.946 12.748 2.668 3.932 1.725 7.473 4.192 10.42 7.232l75.106 77.485 75.17-77.485c5.93-6.082 14.122-9.9 23.2-9.9 18.055 0 32.767 15.138 32.767 33.791v110.197c-37.192-26.764-82.313-42.614-131.106-42.614-48.757 0-93.913 15.851-131.072 42.614zM507.904 515.585c-72.385 0-131.073 58.687-131.073 131.072s58.688 131.072 131.073 131.072c72.386 0 131.073-58.688 131.073-131.072s-58.688-131.072-131.073-131.072zM507.904 845.312c-108.593 0-196.608-88.015-196.608-196.608 0-108.56 88.015-196.608 196.608-196.608 108.56 0 196.608 88.048 196.608 196.608 0 108.593-88.048 196.608-196.608 196.608z" />
<glyph unicode="&#xea19;" d="M432.975 210.291v-140.676h-24.788v108.685h-19.703v-108.685h-19.915v-19.703h130.931v19.703h-45.974v67.372h38.771v18.856h-38.771v54.449h41.737v19.703h-120.126v-19.703h57.838zM332.129 236.562l-13.983-13.347c14.407-11.229 25.847-21.822 34.11-31.991l13.771 13.983c-9.322 10.381-20.762 20.762-33.898 31.356v0zM303.104 175.122v-19.279h29.237v-75.847c0-4.237-1.907-7.839-5.297-10.805l7.627-18.22c14.407 9.746 27.966 20.762 40.678 33.050l-5.297 21.398c-6.568-6.356-12.712-12.288-18.432-17.373v87.075h-48.516zM590.813 239.104v-35.381h-61.016v-19.279h61.016v-37.711h-73.092v-19.279h73.092v-84.957h20.127v84.957h68.008c-0.636-23.517-2.119-36.864-4.449-39.83-2.33-2.754-6.144-4.237-11.441-4.661-6.991 0-14.407 0.212-22.457 0.212l5.508-18.856h13.559c5.085 0 10.381 0.636 15.466 1.695 5.932 1.271 10.169 3.602 12.924 6.568 6.78 7.203 10.381 31.779 10.593 74.152h-29.449l4.025 47.245v9.746h-62.287v35.381h-20.127zM610.94 146.732v37.711h42.161l-3.602-37.711h-38.559zM663.693 238.68l-10.381-15.254c14.407-6.78 28.39-15.89 41.949-27.754l10.593 16.525c-12.712 10.169-26.695 19.068-42.161 26.483v0z" />
<glyph unicode="&#xea1a;" d="M235.93 960h552.141c130.3 0 235.93-105.629 235.93-235.93v-552.141c0-130.3-105.629-235.93-235.93-235.93h-552.141c-130.3 0-235.93 105.629-235.93 235.93v552.141c0 130.3 105.629 235.93 235.93 235.93z" />
<glyph unicode="&#xea1b;" d="M110.625 198.897v-19.084h26.005c-6.501-23.908-16.987-45.089-31.667-63.963l8.389-21.601c9.647 15.099 17.616 31.667 24.117 49.703v-98.566h19.923v100.873c5.033-8.389 10.695-19.084 17.197-31.667l10.486 15.099 4.404-3.146c3.775 4.614 7.759 9.437 11.534 14.47 3.565-19.294 11.534-36.7 24.117-51.8-13.212-13.212-30.618-22.649-52.429-28.312l11.534-17.826c22.23 6.291 40.685 16.777 55.365 31.457 13.422-11.744 30.618-21.81 51.59-30.199l10.276 17.826c-19.923 7.55-36.49 16.777-49.493 27.682 10.066 15.099 17.197 33.764 21.181 55.575l-18.874 3.775c-3.146-17.197-8.808-32.296-16.987-44.879-10.486 12.793-16.987 27.263-19.504 43.411l-15.309-4.614c7.759 11.115 14.89 23.488 21.181 36.91l-16.568 8.179c-8.389-17.826-18.455-33.345-30.199-46.766-6.711 8.179-13.212 15.729-19.504 22.859v15.519h20.133v19.084h-20.133v38.588h-19.923v-38.588h-26.844zM181.718 212.529v-19.294h114.085v19.294h-45.508c-3.565 10.066-7.34 19.294-11.115 27.263l-20.133-3.355c4.194-7.34 7.969-15.309 11.325-23.908h-48.654zM264.975 189.25l-15.519-9.647c14.68-18.874 26.424-36.071 35.022-51.59l16.568 11.325c-8.389 14.261-20.552 31.038-36.071 49.912v0zM413.034 146.259c18.245-18.874 32.925-36.49 43.83-53.058l15.309 15.309c-14.47 19.084-32.086 38.168-53.058 57.462 1.468 6.291 2.726 13.212 3.985 20.552h54.526v-111.568c0-6.082-2.936-9.227-8.389-9.227l-31.667 1.049 5.453-19.923h32.925c14.47 0 21.81 7.969 21.81 23.698v135.266h-72.561c0.839 10.276 1.258 21.181 1.258 32.716h-20.342c0-11.534-0.629-22.44-1.468-32.716h-76.336v-161.271h20.133v141.977h53.897c-1.258-7.969-2.936-15.309-4.823-22.020-7.13-22.649-22.020-41.733-44.669-57.252l13.422-16.148c22.44 15.099 37.958 33.345 46.766 55.155v0zM526.91 230.774v-18.455h11.744v-123.942l-14.051-2.097 4.823-19.084c18.245 3.355 35.861 7.13 52.639 11.325v-34.393h19.294v39.636c4.194 1.258 8.389 2.307 12.583 3.565v19.294c-4.194-1.258-8.389-2.726-12.583-3.985v109.681h10.066v18.455h-84.515zM557.528 91.733v32.296h24.537v-26.634c-8.179-2.097-16.358-3.985-24.537-5.662v0zM557.528 142.064v25.795h24.537v-25.795h-24.537zM557.528 185.895v26.424h24.537v-26.424h-24.537zM619.394 227.209v-102.551h91.016v102.551h-91.016zM690.907 143.323h-52.009v65.012h52.009v-65.012zM638.478 114.801c-8.808-23.069-19.084-42.992-31.248-59.349l16.568-11.954c12.163 17.616 22.859 38.378 31.877 62.705l-17.197 8.598zM689.229 115.431l-15.519-9.647c13.422-22.649 24.117-43.201 31.877-61.866l16.568 11.744c-7.759 16.987-18.665 36.91-32.925 59.769v0zM797.023 238.743c-8.598-20.342-25.166-37.539-49.703-51.59l12.163-15.938c8.598 5.243 16.358 10.905 23.488 16.987 8.598-7.13 17.826-13.841 27.892-19.713-21.81-8.179-46.976-14.051-75.078-17.616l9.227-18.665c33.135 5.033 62.495 13.212 87.661 24.537 26.005-12.373 55.365-20.342 87.871-24.117l9.018 18.665c-27.682 2.517-52.639 8.179-75.078 16.568 17.826 10.486 33.135 23.069 45.718 37.539v16.148h-89.758c2.517 4.404 4.823 9.227 6.921 14.261l-20.342 2.936zM832.465 177.716c-13.212 6.711-25.376 14.68-36.281 23.698 0.21 0.419 0.629 0.839 1.258 1.468h73.61c-11.325-9.647-24.117-18.036-38.588-25.166v0zM817.365 143.952c0-7.55-0.839-14.68-2.097-21.391h-65.012v-17.826h58.93c-1.258-2.726-2.936-5.453-4.614-8.179-10.486-14.47-32.925-26.634-67.109-36.7l13.212-16.148c38.797 12.373 63.334 27.892 73.82 46.766 2.517 4.404 4.614 9.227 6.501 14.261h56.833c-0.629-18.455-2.307-29.989-5.033-34.393-2.726-4.194-9.437-6.501-20.133-6.711-6.711 0.419-15.519 0.839-26.424 1.258l5.033-18.036c10.066-0.629 18.874-1.049 26.005-1.049 14.68 0 25.166 3.775 31.038 10.905s9.018 29.15 9.437 65.851h-72.352c1.049 6.711 1.678 13.841 1.678 21.391h-19.713z" />
<glyph unicode="&#xea1c;" d="M507.902 433.502l-102.473-30.075c-6.918-2.030-12.126 2.237-11.64 9.445l7.396 109.488-71.013 85.865c-4.607 5.571-2.643 11.498 4.396 13.24l102.189 25.296 63.866 95.719c4.020 6.025 10.519 6.051 14.555 0l63.828-95.719 102.226-25.296c7.038-1.741 9.022-7.652 4.401-13.24l-71.013-85.865 7.396-109.488c0.489-7.247-4.817-11.448-11.64-9.445l-102.473 30.075z" />
<glyph unicode="&#xea1d;" d="M237.832 960h548.335c131.351 0 237.832-106.481 237.832-237.832v-548.335c0-131.351-106.481-237.832-237.832-237.832h-548.335c-131.351 0-237.832 106.481-237.832 237.832v548.335c0 131.351 106.481 237.832 237.832 237.832z" />
<glyph unicode="&#xea1e;" d="M317.914 116.23v-19.661h75.684c-12.050-18.815-38.899-32.557-80.546-41.013l8.245-18.604c46.087 10.993 76.318 27.906 90.482 51.16 12.050-23.678 40.801-40.59 86.465-50.738l8.245 18.604c-39.533 7.188-66.593 20.718-80.969 40.59h76.741v19.661h-82.237c0.423 4.651 0.846 9.513 0.846 15.010h-19.449c0-5.497-0.423-10.359-1.057-15.010h-82.449zM373.091 231.024v-52.217c-16.701-8.033-35.939-15.010-57.714-20.929l8.033-18.604c18.604 5.919 35.305 12.262 49.681 19.449v-26.214h20.295v98.515h-20.295zM331.021 223.413l-10.782-15.855c11.839-5.497 23.255-13.319 34.459-23.255l10.782 16.701c-10.359 8.879-21.775 16.49-34.459 22.409v0zM436.090 231.447c-6.976-15.433-20.295-28.54-39.956-39.322l12.262-16.067c10.993 6.765 20.506 14.164 28.328 22.409h42.493c-5.074-9.725-12.684-18.392-23.255-25.792-5.497 5.919-11.205 11.627-17.335 16.913l-13.741-10.359c5.285-4.44 10.782-9.513 16.49-15.221-10.993-5.497-23.889-9.936-38.899-13.53l9.725-17.547c48.623 12.684 77.586 34.882 86.888 66.804v16.913h-48.623c2.325 4.017 4.44 8.245 6.131 12.473l-20.506 2.325zM569.276 167.813v-35.939c-0.211-37.208-7.188-64.479-20.929-81.603l13.953-12.050c15.010 18.392 23.255 46.721 24.523 84.985h20.506c-0.211-29.597-0.846-48.201-2.114-55.6-1.268-7.188-4.017-10.993-8.668-11.416-4.228 0-9.302 0.423-15.433 0.846l5.285-16.49c4.651-0.634 8.668-1.057 12.262-1.057 11.416 0.211 18.604 5.919 21.775 17.124 2.96 11.416 4.862 39.533 5.497 83.928h-38.899v27.271h39.11v18.181h-73.147v20.718h78.643v18.181h-97.247v-95.133c-0.423-34.248-4.228-61.096-11.839-80.123l13.953-12.684c10.359 23.255 15.855 54.331 16.49 92.807v38.053h16.278zM654.896 231.235v-42.916h-22.409v-18.604h22.409c-1.057-54.966-11.416-95.344-31.288-120.713l14.164-12.684c22.832 28.54 35.093 72.935 36.362 133.397h18.815c-0.211-56.234-0.846-89.425-2.114-99.361-1.268-9.302-5.708-14.164-13.107-14.164-5.708 0-12.473 0.423-20.084 1.057l4.228-16.913c8.879-0.423 15.010-0.846 18.815-0.846 16.49 0 25.792 7.822 27.906 23.466 1.903 15.855 2.96 57.714 2.96 125.364h-37.208v42.916h-19.449z" />
</font>
</defs>
</svg>
